<svg width="358" height="221" viewBox="0 0 358 221" fill="none" xmlns="http://www.w3.org/2000/svg">
<rect y="13" width="358" height="208" rx="4" fill="#FFEEBA"/>
<g clip-path="url(#clip0_102_7099)">
<path d="M180.512 243.937C244.767 243.937 296.857 213.922 296.857 176.896C296.857 139.871 244.767 109.856 180.512 109.856C116.257 109.856 64.1675 139.871 64.1675 176.896C64.1675 213.922 116.257 243.937 180.512 243.937Z" fill="#F5F5F5"/>
<path d="M112.192 187.739C128.012 187.739 140.837 180.35 140.837 171.235C140.837 162.12 128.012 154.731 112.192 154.731C96.3719 154.731 83.5472 162.12 83.5472 171.235C83.5472 180.35 96.3719 187.739 112.192 187.739Z" fill="#E0E0E0"/>
<path d="M249.657 187.739C265.477 187.739 278.302 180.35 278.302 171.235C278.302 162.12 265.477 154.731 249.657 154.731C233.837 154.731 221.012 162.12 221.012 171.235C221.012 180.35 233.837 187.739 249.657 187.739Z" fill="#E0E0E0"/>
<path d="M178.407 219.428C194.227 219.428 207.052 212.039 207.052 202.925C207.052 193.81 194.227 186.421 178.407 186.421C162.587 186.421 149.762 193.81 149.762 202.925C149.762 212.039 162.587 219.428 178.407 219.428Z" fill="#E0E0E0"/>
<path d="M242.244 39.8405C242.244 39.8405 240.63 40.6587 241.94 44.4564C243.251 48.2541 240.281 50.1529 239.512 48.6581C239.512 48.6581 239.562 51.067 242.492 51.067C245.422 51.067 245.943 48.648 245.943 48.648C245.943 48.648 246.995 49.7994 246.995 53.0416C246.995 56.2838 243.899 68.4597 254.742 68.4597C265.586 68.4597 265.393 59.2381 265.393 59.2381C265.393 59.2381 268.171 59.2886 268.171 55.1374C268.171 55.1374 263.946 57.7584 263.946 51.9053C263.946 46.0522 264.913 38.6386 260.46 38.6386C260.46 38.6386 262.003 35.4621 258.942 33.4269C255.881 31.3917 246.687 34.1591 246.687 34.1591C246.687 34.1591 243.924 32.5027 241.945 34.4621C239.512 36.866 242.244 39.8405 242.244 39.8405Z" fill="#263238"/>
<path d="M244.926 165.427L243.135 164.271V161.963L244.86 162.115L244.926 165.427Z" fill="#263238"/>
<path d="M247.37 159.544L247.304 163.993L244.926 165.427L244.653 161.63C244.653 161.63 246.51 159.514 247.37 159.544Z" fill="#263238"/>
<path d="M240.878 154.322C240.878 154.322 240.751 154.418 239.243 158.458C237.736 162.498 236.167 163.983 235.256 164.741C234.345 165.498 232.271 166.892 232.271 167.973C232.271 169.053 234.016 169.902 236.572 169.68C239.127 169.457 242.725 168.836 243.656 165.776C243.954 164.766 244.01 162.978 245.174 161.736C246.338 160.493 247.375 159.544 247.375 159.544C247.375 159.544 247.491 155.463 246.363 154.368L240.878 154.322Z" fill="#37474F"/>
<path d="M240.761 149.358L240.888 154.731C240.888 154.731 241.08 156.368 243.605 156.034C246.13 155.701 246.292 154.534 246.292 154.534L247.431 149.343L240.761 149.358Z" fill="#FFA8A7"/>
<path d="M242.315 87.125C242.315 87.125 240.62 109.391 240.554 121.345C240.488 133.298 240.761 149.358 240.761 149.358C241.791 149.899 242.937 150.182 244.101 150.182C245.265 150.182 246.411 149.899 247.441 149.358L250.846 133.076C251.251 131.115 251.251 129.093 250.846 127.132C250.588 125.856 250.598 124.541 250.876 123.269L254.975 104.538V87.125H242.315Z" fill="#455A64"/>
<path d="M245.649 91.6853C245.649 91.6853 246.155 97.0637 250.203 99.7655L253.199 112.709L254.97 104.538V91.6853H245.649Z" fill="#37474F"/>
<path d="M263.111 159.776C263.111 159.776 262.464 159.938 262.646 161.423C262.828 162.907 263.056 164.806 263.056 164.806C263.056 164.806 263.268 167.882 263.253 169.892C263.238 171.902 263.122 174.598 263.531 176.033C263.941 177.467 264.791 178.992 266.107 178.947C267.423 178.901 270.499 176.977 270.201 171.876C270.12 170.493 268.683 165.816 268.683 165.816C268.683 165.816 268.915 161.271 268.88 160.145C268.89 159.966 268.848 159.788 268.758 159.633C268.668 159.477 268.534 159.352 268.374 159.271L263.111 159.776Z" fill="#37474F"/>
<path d="M262.378 155.65L263.182 160.196C263.182 160.196 263.572 161.564 266.021 161.564C266.578 161.577 267.122 161.39 267.553 161.037C267.984 160.684 268.273 160.188 268.369 159.64L268.515 155.297L262.378 155.65Z" fill="#FFA8A7"/>
<path d="M242.315 87.125C242.315 87.125 245.29 96.5738 251.468 98.2353L256.564 123.067L262.378 155.65C263.302 156.261 264.401 156.556 265.507 156.49C266.614 156.425 267.67 156.002 268.515 155.287L269.376 130.541C269.441 128.707 269.108 126.881 268.399 125.188C267.82 123.803 267.525 122.315 267.534 120.814C267.564 115.315 267.635 101.472 267.64 98.0434C267.64 93.7407 266.436 87.3472 265.495 85.1251L242.315 87.125Z" fill="#455A64"/>
<path d="M235.61 74.8886L228.248 71.712L225.657 76.7016L233.293 80.8023C233.293 80.8023 236.445 78.2772 235.61 74.8886Z" fill="#FFA8A7"/>
<path d="M246.692 57.511L245.862 57.6372C244.937 57.7754 244.068 58.1638 243.349 58.7604C242.63 59.3569 242.089 60.1387 241.784 61.0208L236.815 75.4491L235.61 74.8885C235.61 74.8885 235.479 78.4236 233.293 80.8174L236.45 82.3324C237.371 82.7853 238.427 82.8795 239.413 82.5965C240.4 82.3136 241.245 81.6738 241.784 80.8022L244.394 76.5298L246.692 57.511Z" fill="#407BFF"/>
<path opacity="0.2" d="M246.692 57.511L245.862 57.6372C244.937 57.7754 244.068 58.1638 243.349 58.7604C242.63 59.3569 242.089 60.1387 241.784 61.0208L236.815 75.4491L235.61 74.8885C235.61 74.8885 235.479 78.4236 233.293 80.8174L236.45 82.3324C237.371 82.7853 238.427 82.8795 239.413 82.5965C240.4 82.3136 241.245 81.6738 241.784 80.8022L244.394 76.5298L246.692 57.511Z" fill="black"/>
<path d="M236.815 75.4491L239.673 76.7772L237.25 74.1865L236.815 75.4491Z" fill="#407BFF"/>
<path opacity="0.4" d="M236.815 75.4491L239.673 76.7772L237.25 74.1865L236.815 75.4491Z" fill="black"/>
<path d="M247.4 57.4756C251.75 57.2292 256.112 57.3069 260.45 57.7079C259.398 59.127 257.987 60.2421 256.362 60.9394C254.737 61.6368 252.956 61.8914 251.2 61.6773C247.926 61.339 246.894 58.6069 247.4 57.4756Z" fill="#FFAAA8"/>
<path d="M257.191 57.8443L250.492 57.7837V47.946H257.191V57.8443Z" fill="#FFAAA8"/>
<path d="M250.492 56.0566C251.861 55.5499 253.114 54.7707 254.172 53.7663C255.231 52.7618 256.074 51.5531 256.65 50.2136V47.946H250.492V56.0566Z" fill="#FF9090"/>
<path d="M248.928 36.9822C248.928 36.9822 242.801 37.3408 243.56 47.7945C243.909 52.6326 245.047 55.1374 248.776 54.9556C253.002 54.7435 259.003 51.8448 258.608 43.5726C258.213 35.3005 248.928 36.9822 248.928 36.9822Z" fill="#FFAAA8"/>
<path d="M257.191 47.946C257.191 47.946 255.511 48.3853 255.511 45.9865C255.511 45.9865 248.048 45.4815 246.403 38.0881C246.403 38.0881 247.142 35.8711 251.802 35.8711C256.463 35.8711 260.379 39.987 259.165 45.6381L257.191 47.946Z" fill="#263238"/>
<path d="M248.053 45.6987V49.2944L245.943 48.648L248.053 45.6987Z" fill="#FF9090"/>
<path d="M251.226 46.0825C251.226 46.2273 251.183 46.3689 251.102 46.4893C251.021 46.6097 250.907 46.7036 250.773 46.759C250.639 46.8144 250.491 46.8289 250.349 46.8007C250.206 46.7724 250.076 46.7027 249.973 46.6003C249.87 46.4979 249.801 46.3674 249.772 46.2253C249.744 46.0833 249.758 45.9361 249.814 45.8023C249.87 45.6685 249.964 45.5541 250.084 45.4736C250.205 45.3932 250.347 45.3502 250.492 45.3502C250.686 45.3502 250.873 45.4274 251.011 45.5647C251.148 45.702 251.226 45.8883 251.226 46.0825Z" fill="#263238"/>
<path d="M246.398 45.5725C246.398 45.7173 246.355 45.8589 246.275 45.9793C246.194 46.0997 246.079 46.1936 245.945 46.249C245.811 46.3044 245.664 46.3189 245.521 46.2907C245.379 46.2624 245.248 46.1927 245.146 46.0903C245.043 45.9879 244.973 45.8574 244.945 45.7153C244.917 45.5733 244.931 45.4261 244.987 45.2923C245.042 45.1584 245.136 45.0441 245.257 44.9636C245.378 44.8832 245.52 44.8402 245.665 44.8402C245.761 44.8402 245.856 44.8592 245.945 44.896C246.034 44.9328 246.115 44.9867 246.183 45.0547C246.252 45.1227 246.306 45.2034 246.342 45.2923C246.379 45.3811 246.398 45.4763 246.398 45.5725Z" fill="#263238"/>
<path d="M244.774 44.0474L246.211 43.1939C246.211 43.1939 245.659 42.6232 245.113 42.9666C244.955 43.0924 244.838 43.2625 244.777 43.4551C244.717 43.6478 244.716 43.854 244.774 44.0474Z" fill="#263238"/>
<path d="M248.235 50.5014C249.071 50.5601 249.903 50.3379 250.598 49.8701C250.598 49.8701 250.76 51.1125 249.718 51.3498C248.675 51.5872 248.235 50.5014 248.235 50.5014Z" fill="#FF9090"/>
<path d="M256.599 48.2187C256.575 47.6167 256.684 47.0167 256.918 46.4613C257.035 46.1135 257.252 45.8077 257.542 45.5815C257.831 45.3554 258.181 45.2188 258.547 45.1887C260.43 45.1382 260.688 46.9461 260.662 47.5875C260.592 49.2793 259.22 51.1226 256.67 51.1781L256.599 48.2187Z" fill="#FFAAA8"/>
<path d="M247.4 57.4756C247.4 57.4756 248.387 60.3138 252.324 60.6521C256.26 60.9905 259.797 58.4654 260.45 57.7079L262.98 58.0008L263.876 69.8838L262.449 74.8531C261.974 76.526 262.183 78.3186 263.031 79.8376C263.978 81.5358 264.809 83.2955 265.52 85.1049C265.52 85.1049 260.86 89.2208 251.494 89.2208C245.751 89.2208 242.34 87.125 242.34 87.125C242.34 87.125 243.555 79.5498 243.701 77.8075C243.857 76.2977 243.909 74.7792 243.858 73.2623C243.858 73.2623 240.918 72.1159 240.918 67.6567C240.918 63.8085 246.717 57.5311 246.717 57.5311L247.4 57.4756Z" fill="#407BFF"/>
<path d="M265.621 90.0389L264.786 96.7152L269.887 97.6596L271.496 91.6852C271.224 91.1869 270.854 90.7479 270.41 90.3942C269.965 90.0404 269.454 89.7792 268.906 89.6257C268.359 89.4723 267.786 89.4298 267.222 89.5008C266.658 89.5717 266.113 89.7547 265.621 90.0389Z" fill="#FFA8A7"/>
<path d="M260.936 57.7635C260.936 57.7635 259.008 59.7432 261.71 67.0205C264.412 74.2977 266.729 81.1609 266.729 81.1609L265.621 90.0541C265.621 90.0541 269.366 89.1754 271.496 91.7005L273.226 84.4535C273.636 82.7436 273.596 80.957 273.11 79.267L268.328 62.5561C267.998 61.3651 267.322 60.2982 266.386 59.4894C265.449 58.6807 264.294 58.1664 263.066 58.011H262.99L260.936 57.7635Z" fill="#407BFF"/>
<path opacity="0.2" d="M260.936 57.7635C260.936 57.7635 259.008 59.7432 261.71 67.0205C264.412 74.2977 266.729 81.1609 266.729 81.1609L265.621 90.0541C265.621 90.0541 269.366 89.1754 271.496 91.7005L273.226 84.4535C273.636 82.7436 273.596 80.957 273.11 79.267L268.328 62.5561C267.998 61.3651 267.322 60.2982 266.386 59.4894C265.449 58.6807 264.294 58.1664 263.066 58.011H262.99L260.936 57.7635Z" fill="black"/>
<path d="M266.729 81.1457C267.692 80.8873 268.706 80.8873 269.669 81.1457C268.74 80.5268 267.606 80.2931 266.507 80.4942L266.729 81.1457Z" fill="#407BFF"/>
<path opacity="0.4" d="M266.729 81.1457C267.692 80.8873 268.706 80.8873 269.669 81.1457C268.74 80.5268 267.606 80.2931 266.507 80.4942L266.729 81.1457Z" fill="black"/>
<path d="M264.786 96.7152C263.91 97.8589 263.439 99.2601 263.445 100.7C263.445 101.508 262.433 102.937 263.289 103.29C263.648 103.442 264.736 102.457 265.105 101.24C265.349 102.296 265.332 103.395 265.055 104.442C264.589 106.204 264.356 106.608 265.449 106.669C266.542 106.73 269.786 105.78 270.236 103.594C270.686 101.407 269.887 97.6596 269.887 97.6596L264.786 96.7152Z" fill="#FFA8A7"/>
<path d="M228.4 72.6362C228.4 72.6362 228.213 70.8131 227.57 69.9293C226.968 69.1801 226.444 68.3712 226.006 67.5153C225.799 66.9396 225.45 66.2175 224.873 67.2325C224.296 68.2476 225.172 69.6263 225.607 70.3283H221.245V73.8634C221.245 73.8634 221.893 76.6409 225.657 76.7167L228.4 72.6362Z" fill="#FFA8A7"/>
<path d="M115.061 155.974L115.132 160.761L117.889 162.513L121.361 160.604V156.241L115.061 155.974Z" fill="#FFA8A7"/>
<path d="M96.0151 159.317L95.9442 164.71L96.9765 166.463H101.682L102.441 159.049L96.0151 159.317Z" fill="#FFA8A7"/>
<path d="M122.17 95.4728L122.555 128.965L121.765 157.564C121.765 157.564 119.812 159.903 114.494 157.903C114.494 157.903 111.671 138.242 112.111 130.657C112.181 129.295 112.127 127.929 111.949 126.577L107.901 95.1799L122.17 95.4728Z" fill="#455A64"/>
<path d="M117.232 101.24C116.68 103.758 115.269 106.005 113.239 107.598L110.826 117.825L108.69 101.205L117.232 101.24Z" fill="#37474F"/>
<path d="M97.6697 95.1901C97.6697 95.1901 97.4318 107.497 97.4116 116.103C97.4116 120.9 97.442 124.345 97.4774 126.455C97.5015 127.957 97.3159 129.454 96.9258 130.905C96.3035 133.253 95.4078 137.783 95.4078 144.717C95.4078 155.504 95.509 160.18 95.509 160.18C95.509 160.18 99.9365 162.837 102.922 160.18L107.476 130.102L111.706 106.366C111.706 106.366 120.374 103.447 120.374 95.387L97.6697 95.1901Z" fill="#455A64"/>
<path d="M126.633 72.4594L128.46 77.5095C128.46 77.5095 134.066 74.4087 137.264 72.6311L140.007 76.6712C140.007 76.6712 131.562 83.3475 127.574 84.2464C123.587 85.1453 120.404 75.4238 120.404 75.4238C120.404 75.4238 122.094 71.9038 126.633 72.4594Z" fill="#FFA8A7"/>
<path d="M117.029 58.9503H118.077C119.273 58.9707 120.433 59.3611 121.397 60.0675C122.362 60.774 123.083 61.7617 123.461 62.8945L126.633 72.4443C125.33 72.5773 124.073 73.0003 122.954 73.6819C121.836 74.3636 120.885 75.2867 120.172 76.3834L117.029 58.9503Z" fill="#407BFF"/>
<path d="M92.2858 101.003C92.2858 101.003 93.2979 102.326 92.6704 105.356C92.4326 106.523 92.9133 107.659 92.3921 108.053C91.8709 108.447 90.95 107.164 90.95 105.548C90.4444 106.459 90.1326 107.465 90.0342 108.502C89.9026 110.169 90.5148 111.507 88.2935 110.421C86.0722 109.335 85.3638 108.401 85.3638 107.154C85.3638 105.507 86.7755 102.321 87.5902 100.776L92.2858 101.003Z" fill="#FFA8A7"/>
<path d="M109.166 58.6978L100.721 59.329L97.1788 75.6157C97.1788 75.6157 98.6412 82.9687 98.6968 84.2262C98.7185 86.1238 98.5746 88.0198 98.2667 89.8925C98.0239 91.5691 97.6697 95.1951 97.6697 95.1951C97.6697 95.1951 99.1877 98.9272 111.413 98.9272C116.842 98.9272 120.607 97.0334 122.17 95.4779C122.17 95.4779 120.829 68.6768 120.738 66.3891C120.647 64.1014 119.65 60.3946 117.029 58.9553L109.166 58.6978Z" fill="#407BFF"/>
<path opacity="0.2" d="M109.166 58.6978L100.721 59.329L97.1788 75.6157C97.1788 75.6157 98.6412 82.9687 98.6968 84.2262C98.7185 86.1238 98.5746 88.0198 98.2667 89.8925C98.0239 91.5691 97.6697 95.1951 97.6697 95.1951C97.6697 95.1951 99.1877 98.9272 111.413 98.9272C116.842 98.9272 120.607 97.0334 122.17 95.4779C122.17 95.4779 120.829 68.6768 120.738 66.3891C120.647 64.1014 119.65 60.3946 117.029 58.9553L109.166 58.6978Z" fill="black"/>
<path d="M103.443 38.5982C103.443 38.5982 100.245 38.8407 100.245 44.5827C100.191 46.6724 100.705 48.7377 101.734 50.5589C102.762 52.3801 104.265 53.8891 106.084 54.9254L111.65 53.9153C111.65 53.9153 120.642 50.663 120.187 42.2647C119.999 38.8205 117.545 37.5377 117.545 37.5377L103.443 38.5982Z" fill="#263238"/>
<path d="M105.457 59.3695C105.457 59.3695 110.077 62.4955 111.59 63.2985C113.067 60.8037 112.318 59.3089 112.318 59.3089V49.2389H105.457V59.3695Z" fill="#FFAAA8"/>
<path d="M112.318 57.5211C110.917 57.0027 109.635 56.2053 108.551 55.1775C107.467 54.1496 106.604 52.9127 106.014 51.5418V49.2389H112.318V57.5211Z" fill="#FF9090"/>
<path d="M113.912 38.0123C113.912 38.0123 120.445 38.2598 119.266 48.7489C118.709 53.6829 118.304 56.41 114.074 56.41C109.844 56.41 103.6 53.2284 104.005 44.7593C104.41 36.2902 113.912 38.0123 113.912 38.0123Z" fill="#FFAAA8"/>
<path d="M114.717 47.244V50.9256L116.877 50.264L114.717 47.244Z" fill="#FF9090"/>
<path d="M111.564 47.8803C111.564 48.0812 111.644 48.2739 111.787 48.416C111.929 48.558 112.122 48.6378 112.323 48.6378C112.525 48.6378 112.718 48.558 112.86 48.416C113.002 48.2739 113.082 48.0812 113.082 47.8803C113.082 47.6794 113.002 47.4867 112.86 47.3447C112.718 47.2026 112.525 47.1228 112.323 47.1228C112.122 47.1228 111.929 47.2026 111.787 47.3447C111.644 47.4867 111.564 47.6794 111.564 47.8803Z" fill="#263238"/>
<path d="M116.508 47.3602C116.508 47.5611 116.588 47.7538 116.73 47.8958C116.873 48.0379 117.066 48.1177 117.267 48.1177C117.468 48.1177 117.661 48.0379 117.804 47.8958C117.946 47.7538 118.026 47.5611 118.026 47.3602C118.026 47.1593 117.946 46.9666 117.804 46.8245C117.661 46.6825 117.468 46.6027 117.267 46.6027C117.066 46.6027 116.873 46.6825 116.73 46.8245C116.588 46.9666 116.508 47.1593 116.508 47.3602Z" fill="#263238"/>
<path d="M118.173 45.7947L116.705 44.9463C116.705 44.9463 117.267 44.3605 117.829 44.714C117.988 44.8391 118.106 45.0089 118.167 45.2016C118.228 45.3943 118.23 45.6009 118.173 45.7947Z" fill="#263238"/>
<path d="M111.924 45.5422L110.598 46.6178C110.598 46.6178 110.244 45.8906 110.765 45.4866C110.941 45.3762 111.146 45.3223 111.353 45.3322C111.56 45.3422 111.76 45.4154 111.924 45.5422Z" fill="#263238"/>
<path d="M115.744 52.4154C115.028 52.4676 114.315 52.2772 113.72 51.875C113.72 51.875 113.583 52.9406 114.474 53.1426C114.737 53.1858 115.007 53.137 115.239 53.0046C115.47 52.8721 115.649 52.664 115.744 52.4154Z" fill="#FF9090"/>
<path d="M105.3 48.1076C105.3 48.1076 107.446 47.5168 106.94 41.3354C106.94 41.3354 114.287 43.4565 118.011 40.5375C121.735 37.6185 120.86 35.9923 120.035 36.4671L118.664 37.27C118.664 37.27 120.333 33.4925 118.942 32.7805C117.55 32.0684 116.412 34.4723 113.695 34.5127C110.977 34.5531 103.499 33.6188 103.372 38.5982V48.1076H105.3Z" fill="#263238"/>
<path d="M106.079 48.9864C106.079 48.9864 105.811 46.4613 104.055 46.4159C102.128 46.3603 101.869 48.2137 101.895 48.8703C101.966 50.6025 103.367 52.471 105.983 52.5468L106.079 48.9864Z" fill="#FFAAA8"/>
<path d="M105.432 57.5211C105.432 57.5211 106.823 60.5512 111.59 63.2985C111.59 63.2985 109.925 62.6773 107.734 64.1166C105.442 65.6316 104.976 65.7124 104.162 62.1925C103.347 58.6726 104.496 58.218 105.432 57.5211Z" fill="#407BFF"/>
<path d="M111.59 63.2985C111.953 61.8649 112.196 60.4038 112.318 58.9301V57.5211C112.318 57.5211 113.781 57.3595 115.805 62.7581C116.204 63.8338 113.705 63.0409 113.062 62.8541C112.799 62.7957 112.526 62.8059 112.268 62.8838C112.01 62.9616 111.776 63.1044 111.59 63.2985Z" fill="#407BFF"/>
<path d="M91.1119 73.7573L88.5009 83.8576C88.2553 84.7954 88.1144 85.7574 88.081 86.7261L87.575 100.806L92.2757 101.008C92.2757 101.008 94.5831 89.8218 95.1042 85.9534L98.1402 75.6915L91.1119 73.7573Z" fill="#FFA8A7"/>
<path d="M101.364 59.2786C101.364 59.2786 103.241 61.5612 101.06 67.586C98.879 73.6109 98.1656 75.6663 98.1656 75.6663C98.1656 75.6663 93.8039 76.6258 91.1119 73.7523L94.1479 63.4752C94.4491 62.4595 95.035 61.551 95.8365 60.8566C96.638 60.1623 97.6217 59.7111 98.6716 59.5563C99.5824 59.4351 100.564 59.324 101.364 59.2786Z" fill="#407BFF"/>
<path d="M137.264 72.6362C137.264 72.6362 137.451 70.8131 138.094 69.9293C138.698 69.1814 139.222 68.3723 139.658 67.5153C139.865 66.9396 140.214 66.2175 140.791 67.2325C141.368 68.2476 140.492 69.6263 140.057 70.3283H144.419V73.8634C144.419 73.8634 143.771 76.6409 140.007 76.7167L137.264 72.6362Z" fill="#FFA8A7"/>
<path d="M95.9493 164.372C96.241 165.09 96.5791 165.788 96.9613 166.463C96.9613 166.463 96.5615 163.993 98.712 163.776C100.863 163.559 102.006 163.604 102.031 164.786C102.057 165.968 102.006 167.084 102.006 167.084C102.006 167.084 102.603 169.816 103.615 171.255C104.627 172.695 105.295 173.427 105.831 174.134C106.368 174.841 107.496 176.199 106.277 178.336C105.685 179.346 99.0561 179.851 97.4116 177.204C95.7671 174.558 97.0979 173.71 95.7621 171.68C94.4262 169.649 94.3149 169.21 94.5325 168.033C94.7501 166.857 95.2308 164.958 95.2864 164.579C95.4129 163.791 95.929 164.008 95.929 164.008L95.9493 164.372Z" fill="#37474F"/>
<path d="M106.292 178.32C106.389 178.158 106.476 177.989 106.55 177.815C106.55 177.815 99.5622 178.124 98.3629 177.467C97.1637 176.811 97.0018 174.553 96.9158 173.664C96.8298 172.775 96.7741 171.993 95.4787 169.993C95.0595 169.401 94.7446 168.741 94.5477 168.043C94.3301 169.22 94.4364 169.66 95.7773 171.69C97.1182 173.72 95.7773 174.548 97.4268 177.215C99.0764 179.881 105.7 179.356 106.292 178.32Z" fill="#263238"/>
<path d="M97.9429 168.72C97.8739 168.718 97.8085 168.689 97.7607 168.639C97.737 168.616 97.7182 168.588 97.7054 168.557C97.6925 168.526 97.6859 168.493 97.6859 168.46C97.6859 168.427 97.6925 168.394 97.7054 168.363C97.7182 168.332 97.737 168.304 97.7607 168.281C97.7607 168.281 99.9618 166.261 102.355 167.7C102.413 167.735 102.455 167.791 102.472 167.856C102.489 167.921 102.48 167.99 102.446 168.049C102.411 168.105 102.354 168.146 102.289 168.162C102.224 168.178 102.155 168.168 102.097 168.134C100.028 166.902 98.1251 168.639 98.1048 168.639C98.063 168.686 98.0052 168.715 97.9429 168.72Z" fill="#EBEBEB"/>
<path d="M98.5046 170.513C98.4694 170.514 98.4345 170.507 98.4022 170.493C98.37 170.479 98.341 170.458 98.3173 170.432C98.2938 170.409 98.2751 170.382 98.2623 170.351C98.2495 170.321 98.2429 170.288 98.2429 170.255C98.2429 170.223 98.2495 170.19 98.2623 170.16C98.2751 170.129 98.2938 170.102 98.3173 170.079C98.3173 170.079 100.524 168.059 102.917 169.498C102.975 169.533 103.016 169.589 103.032 169.654C103.048 169.72 103.038 169.789 103.003 169.846C102.968 169.904 102.912 169.945 102.846 169.961C102.781 169.978 102.711 169.967 102.654 169.932C100.589 168.7 98.7424 170.377 98.6665 170.437C98.6235 170.481 98.566 170.508 98.5046 170.513Z" fill="#EBEBEB"/>
<path d="M99.552 172.179C99.5173 172.18 99.4828 172.174 99.4506 172.161C99.4185 172.148 99.3892 172.128 99.3648 172.104C99.341 172.08 99.3222 172.052 99.3094 172.022C99.2965 171.991 99.2899 171.958 99.2899 171.924C99.2899 171.891 99.2965 171.858 99.3094 171.827C99.3222 171.797 99.341 171.769 99.3648 171.745C99.3648 171.745 101.566 169.725 103.959 171.164C104.016 171.199 104.056 171.255 104.072 171.319C104.088 171.383 104.078 171.451 104.044 171.508C104.01 171.565 103.955 171.606 103.891 171.623C103.827 171.64 103.759 171.632 103.701 171.599C101.637 170.372 99.7847 172.043 99.7088 172.104C99.6672 172.147 99.6116 172.174 99.552 172.179Z" fill="#EBEBEB"/>
<path d="M105.847 174.119C105.573 173.76 105.27 173.397 104.9 172.932C104.17 172.734 103.406 172.697 102.66 172.824C101.914 172.951 101.205 173.239 100.583 173.668C99.9603 174.097 99.4391 174.657 99.0557 175.308C98.6722 175.958 98.4358 176.685 98.3629 177.437C98.3629 177.437 99.9821 178.512 102.973 178.512C104.199 178.487 105.411 178.241 106.55 177.785V177.74C107.299 175.937 106.332 174.735 105.847 174.119Z" fill="#EBEBEB"/>
<path d="M115.117 159.968C115.868 160.982 116.81 161.839 117.889 162.493C117.889 162.493 117.829 161.206 118.208 160.751C118.588 160.297 121.436 159.393 121.75 159.948C122.008 160.613 122.199 161.301 122.322 162.003C122.322 162.003 126.066 164.811 127.352 165.433C128.637 166.054 131.961 167.054 132.28 168.7C132.421 169.353 132.328 170.034 132.019 170.626C131.709 171.218 131.202 171.684 130.585 171.942C127.589 173.018 123.202 171.76 120.738 170.028C119.533 169.098 118.066 168.569 116.543 168.513C115.82 168.387 113.791 167.983 113.649 166.336C113.507 164.69 114.125 163.306 114.155 162.508C114.186 161.711 113.973 159.559 115.137 159.559L115.117 159.968Z" fill="#37474F"/>
<path d="M127.139 171.705C124.808 171.529 122.57 170.715 120.672 169.351C118.947 168.033 118.233 168.261 115.977 167.806C115.459 167.712 114.972 167.491 114.561 167.163C114.149 166.835 113.825 166.411 113.619 165.927C113.619 166.064 113.619 166.2 113.619 166.336C113.76 167.983 115.79 168.387 116.513 168.513C118.036 168.569 119.502 169.098 120.708 170.028C123.172 171.76 127.559 173.018 130.555 171.942C130.944 171.799 131.292 171.561 131.567 171.25C130.122 171.621 128.629 171.775 127.139 171.705Z" fill="#263238"/>
<path d="M132.26 168.72C132.017 167.478 130.064 166.604 128.566 165.983C124.412 167.498 124.892 171.255 124.903 171.331C125.635 171.526 126.383 171.653 127.139 171.71C128.625 171.784 130.114 171.635 131.557 171.27C131.441 171.398 131.314 171.515 131.177 171.619C131.612 171.286 131.945 170.838 132.137 170.325C132.328 169.812 132.371 169.256 132.26 168.72Z" fill="#EBEBEB"/>
<path d="M120.743 164.438C120.705 164.436 120.667 164.428 120.632 164.412C120.576 164.381 120.534 164.33 120.515 164.269C120.496 164.207 120.502 164.141 120.531 164.084C120.778 163.629 121.116 163.229 121.523 162.908C121.93 162.586 122.398 162.351 122.899 162.216C122.93 162.209 122.962 162.208 122.994 162.214C123.025 162.22 123.055 162.232 123.082 162.249C123.109 162.267 123.132 162.289 123.15 162.315C123.168 162.342 123.181 162.371 123.187 162.402C123.199 162.465 123.187 162.53 123.152 162.584C123.117 162.638 123.062 162.676 123 162.69C122.138 162.941 121.41 163.522 120.976 164.306C120.955 164.349 120.921 164.384 120.88 164.408C120.838 164.431 120.791 164.442 120.743 164.438Z" fill="#EBEBEB"/>
<path d="M122.443 165.746C122.404 165.745 122.366 165.735 122.332 165.715C122.276 165.685 122.235 165.635 122.216 165.574C122.197 165.514 122.202 165.448 122.231 165.392C122.479 164.937 122.816 164.537 123.223 164.215C123.63 163.894 124.098 163.659 124.599 163.524C124.662 163.51 124.728 163.522 124.782 163.557C124.836 163.592 124.874 163.647 124.887 163.71C124.901 163.773 124.889 163.839 124.854 163.893C124.818 163.947 124.763 163.985 124.7 163.998C124.273 164.121 123.873 164.327 123.526 164.604C123.179 164.881 122.89 165.225 122.676 165.614C122.653 165.655 122.619 165.689 122.578 165.712C122.537 165.735 122.491 165.747 122.443 165.746Z" fill="#EBEBEB"/>
<path d="M124.214 166.897C124.175 166.896 124.137 166.886 124.103 166.867C124.047 166.837 124.006 166.786 123.987 166.726C123.968 166.665 123.973 166.6 124.002 166.543C124.248 166.087 124.585 165.686 124.992 165.364C125.399 165.043 125.868 164.808 126.37 164.675C126.401 164.668 126.434 164.668 126.465 164.674C126.496 164.679 126.526 164.691 126.553 164.709C126.58 164.726 126.603 164.748 126.621 164.775C126.639 164.801 126.652 164.831 126.658 164.862C126.665 164.893 126.665 164.925 126.66 164.956C126.654 164.987 126.642 165.016 126.624 165.042C126.607 165.069 126.584 165.091 126.558 165.109C126.532 165.126 126.502 165.139 126.471 165.145C126.044 165.268 125.644 165.475 125.297 165.754C124.95 166.032 124.661 166.376 124.447 166.766C124.424 166.807 124.39 166.841 124.349 166.864C124.308 166.887 124.262 166.898 124.214 166.897Z" fill="#EBEBEB"/>
<path d="M230.105 70.3282H131.794C131.009 70.3282 130.372 70.9636 130.372 71.7473V125.642C130.372 126.426 131.009 127.062 131.794 127.062H230.105C230.89 127.062 231.527 126.426 231.527 125.642V71.7473C231.527 70.9636 230.89 70.3282 230.105 70.3282Z" fill="#407BFF"/>
<path opacity="0.7" d="M230.105 70.3282H131.794C131.009 70.3282 130.372 70.9636 130.372 71.7473V125.642C130.372 126.426 131.009 127.062 131.794 127.062H230.105C230.89 127.062 231.527 126.426 231.527 125.642V71.7473C231.527 70.9636 230.89 70.3282 230.105 70.3282Z" fill="white"/>
<path d="M227.884 125.451H134.016C133.542 125.451 133.087 125.263 132.751 124.929C132.415 124.595 132.226 124.141 132.224 123.668V73.732C132.226 73.2588 132.415 72.8054 132.751 72.4712C133.087 72.137 133.542 71.9493 134.016 71.9493H227.884C228.358 71.9493 228.812 72.1372 229.147 72.4715C229.482 72.8058 229.67 73.2592 229.67 73.732V123.678C229.667 124.149 229.478 124.6 229.143 124.932C228.809 125.264 228.356 125.451 227.884 125.451ZM134.016 72.4695C133.682 72.4695 133.363 72.6013 133.127 72.836C132.89 73.0708 132.757 73.3893 132.756 73.7219V123.668C132.757 124 132.89 124.319 133.127 124.554C133.363 124.788 133.682 124.92 134.016 124.92H227.884C228.217 124.92 228.536 124.788 228.771 124.553C229.006 124.319 229.139 124 229.139 123.668V73.732C229.139 73.3999 229.006 73.0813 228.771 72.8464C228.536 72.6116 228.217 72.4796 227.884 72.4796L134.016 72.4695Z" fill="#407BFF"/>
<g opacity="0.5">
<path d="M227.884 125.451H134.016C133.542 125.451 133.087 125.263 132.751 124.929C132.415 124.595 132.226 124.141 132.224 123.668V73.732C132.226 73.2588 132.415 72.8054 132.751 72.4712C133.087 72.137 133.542 71.9493 134.016 71.9493H227.884C228.358 71.9493 228.812 72.1372 229.147 72.4715C229.482 72.8058 229.67 73.2592 229.67 73.732V123.678C229.667 124.149 229.478 124.6 229.143 124.932C228.809 125.264 228.356 125.451 227.884 125.451ZM134.016 72.4695C133.682 72.4695 133.363 72.6013 133.127 72.836C132.89 73.0708 132.757 73.3893 132.756 73.7219V123.668C132.757 124 132.89 124.319 133.127 124.554C133.363 124.788 133.682 124.92 134.016 124.92H227.884C228.217 124.92 228.536 124.788 228.771 124.553C229.006 124.319 229.139 124 229.139 123.668V73.732C229.139 73.3999 229.006 73.0813 228.771 72.8464C228.536 72.6116 228.217 72.4796 227.884 72.4796L134.016 72.4695Z" fill="white"/>
</g>
<path d="M221.017 96.6243H140.887C140.272 96.6243 139.774 97.1217 139.774 97.7353V115.153C139.774 115.767 140.272 116.264 140.887 116.264H221.017C221.632 116.264 222.13 115.767 222.13 115.153V97.7353C222.13 97.1217 221.632 96.6243 221.017 96.6243Z" fill="white"/>
<path d="M149.428 101.74V109.795H147.323V103.467H145.765V101.74H149.428Z" fill="#407BFF"/>
<path d="M158.521 105.765C158.521 108.396 157.393 109.856 155.369 109.856C153.345 109.856 152.201 108.396 152.201 105.765C152.201 103.134 153.32 101.685 155.369 101.685C157.418 101.685 158.521 103.134 158.521 105.765ZM154.215 105.765C154.215 107.604 154.549 108.371 155.369 108.371C156.189 108.371 156.507 107.604 156.507 105.765C156.507 103.927 156.174 103.154 155.369 103.154C154.564 103.154 154.2 103.912 154.2 105.765H154.215Z" fill="#407BFF"/>
<path d="M165.626 105.765C165.626 108.396 164.497 109.856 162.473 109.856C160.449 109.856 159.306 108.396 159.306 105.765C159.306 103.134 160.424 101.685 162.473 101.685C164.523 101.685 165.626 103.134 165.626 105.765ZM161.32 105.765C161.32 107.604 161.654 108.371 162.473 108.371C163.293 108.371 163.612 107.604 163.612 105.765C163.612 103.927 163.278 103.154 162.473 103.154C161.669 103.154 161.32 103.912 161.32 105.765Z" fill="#407BFF"/>
<path d="M168.414 108.891C168.421 109.026 168.4 109.16 168.351 109.286C168.303 109.412 168.229 109.526 168.133 109.622C168.038 109.717 167.923 109.791 167.797 109.839C167.671 109.887 167.536 109.908 167.402 109.901C167.201 109.901 167.006 109.842 166.839 109.731C166.673 109.62 166.543 109.462 166.467 109.278C166.39 109.093 166.37 108.89 166.409 108.694C166.448 108.498 166.544 108.318 166.686 108.177C166.827 108.036 167.008 107.939 167.204 107.901C167.4 107.862 167.604 107.882 167.789 107.958C167.974 108.034 168.132 108.164 168.243 108.33C168.354 108.496 168.414 108.691 168.414 108.891Z" fill="#407BFF"/>
<path d="M175.548 105.765C175.548 108.396 174.42 109.856 172.396 109.856C170.372 109.856 169.228 108.396 169.228 105.765C169.228 103.134 170.347 101.685 172.396 101.685C174.445 101.685 175.548 103.134 175.548 105.765ZM171.242 105.765C171.242 107.604 171.576 108.371 172.396 108.371C173.216 108.371 173.534 107.604 173.534 105.765C173.534 103.927 173.2 103.154 172.396 103.154C171.591 103.154 171.242 103.912 171.242 105.765Z" fill="#407BFF"/>
<path d="M182.652 105.765C182.652 108.396 181.524 109.856 179.5 109.856C177.476 109.856 176.333 108.396 176.333 105.765C176.333 103.134 177.451 101.685 179.5 101.685C181.549 101.685 182.652 103.134 182.652 105.765ZM178.346 105.765C178.346 107.604 178.68 108.371 179.5 108.371C180.32 108.371 180.639 107.604 180.639 105.765C180.639 103.927 180.305 103.154 179.5 103.154C178.696 103.154 178.346 103.912 178.346 105.765Z" fill="#407BFF"/>
<path d="M189.757 105.765C189.757 108.396 188.628 109.856 186.599 109.856C184.57 109.856 183.437 108.396 183.437 105.765C183.437 103.134 184.55 101.685 186.599 101.685C188.649 101.685 189.757 103.134 189.757 105.765ZM185.451 105.765C185.451 107.604 185.785 108.371 186.599 108.371C187.414 108.371 187.743 107.604 187.743 105.765C187.743 103.927 187.409 103.154 186.599 103.154C185.79 103.154 185.451 103.912 185.451 105.765Z" fill="#407BFF"/>
<path d="M192.54 108.891C192.549 109.026 192.531 109.161 192.486 109.289C192.441 109.417 192.37 109.534 192.278 109.633C192.185 109.732 192.074 109.81 191.949 109.864C191.825 109.918 191.691 109.946 191.555 109.946C191.42 109.946 191.286 109.918 191.162 109.864C191.037 109.81 190.926 109.732 190.833 109.633C190.741 109.534 190.67 109.417 190.625 109.289C190.58 109.161 190.562 109.026 190.571 108.891C190.562 108.756 190.58 108.621 190.625 108.493C190.67 108.366 190.741 108.249 190.833 108.15C190.926 108.051 191.037 107.972 191.162 107.918C191.286 107.864 191.42 107.836 191.555 107.836C191.691 107.836 191.825 107.864 191.949 107.918C192.074 107.972 192.185 108.051 192.278 108.15C192.37 108.249 192.441 108.366 192.486 108.493C192.531 108.621 192.549 108.756 192.54 108.891Z" fill="#407BFF"/>
<path d="M199.679 105.765C199.679 108.396 198.551 109.856 196.527 109.856C194.503 109.856 193.359 108.396 193.359 105.765C193.359 103.134 194.478 101.685 196.527 101.685C198.576 101.685 199.679 103.134 199.679 105.765ZM195.373 105.765C195.373 107.604 195.707 108.371 196.527 108.371C197.347 108.371 197.665 107.604 197.665 105.765C197.665 103.927 197.331 103.154 196.527 103.154C195.722 103.154 195.373 103.912 195.373 105.765Z" fill="#407BFF"/>
<path d="M206.784 105.765C206.784 108.396 205.655 109.856 203.626 109.856C201.597 109.856 200.464 108.396 200.464 105.765C200.464 103.134 201.577 101.685 203.626 101.685C205.675 101.685 206.784 103.134 206.784 105.765ZM202.478 105.765C202.478 107.604 202.811 108.371 203.626 108.371C204.441 108.371 204.77 107.604 204.77 105.765C204.77 103.927 204.436 103.154 203.626 103.154C202.817 103.154 202.478 103.912 202.478 105.765Z" fill="#407BFF"/>
<path d="M213.908 105.765C213.908 108.396 212.78 109.856 210.751 109.856C208.722 109.856 207.583 108.396 207.583 105.765C207.583 103.134 208.701 101.685 210.751 101.685C212.8 101.685 213.908 103.134 213.908 105.765ZM209.602 105.765C209.602 107.604 209.936 108.371 210.751 108.371C211.565 108.371 211.889 107.604 211.889 105.765C211.889 103.927 211.555 103.154 210.751 103.154C209.946 103.154 209.582 103.912 209.582 105.765H209.602Z" fill="#407BFF"/>
<path d="M160.743 84.8424H157.236L156.674 86.2665H154.509L157.975 78.1863H160.14L163.526 86.2665H161.284L160.743 84.8424ZM160.12 83.2314L159.017 80.3578L157.889 83.2314H160.12Z" fill="#407BFF"/>
<path d="M165.094 78.2217L166.612 84.0445L168.13 78.2217H170.19L171.708 84.0445L173.226 78.2217H175.391L172.73 86.3019H170.554L169.102 80.868L167.609 86.3019H165.443L162.797 78.2217H165.094Z" fill="#407BFF"/>
<path d="M180.866 84.8424H177.38L176.813 86.2665H174.647L178.114 78.1863H180.279L183.664 86.2665H181.418L180.866 84.8424ZM180.244 83.2314L179.141 80.3578L178.012 83.2314H180.244Z" fill="#407BFF"/>
<path d="M189.235 86.2766L188.062 84.0445H186.498V86.2766H184.388V78.1964H188.016C190.156 78.1964 191.376 79.2317 191.376 81.0245C191.413 81.5494 191.297 82.0738 191.042 82.5344C190.787 82.995 190.404 83.3721 189.939 83.6203L191.619 86.2514L189.235 86.2766ZM186.498 82.3678H188.016C188.866 82.3678 189.362 81.9335 189.362 81.1154C189.362 80.2973 188.856 79.8983 188.016 79.8983H186.498V82.3678Z" fill="#407BFF"/>
<path d="M200.494 82.2415C200.494 84.6454 198.733 86.2816 196.122 86.2816H192.722V78.2014H196.198C198.758 78.2216 200.494 79.8528 200.494 82.2415ZM198.343 82.2668C198.367 81.9667 198.328 81.6649 198.229 81.3808C198.129 81.0966 197.971 80.8364 197.765 80.6167C197.559 80.3971 197.309 80.2229 197.031 80.1052C196.753 79.9876 196.454 79.9291 196.152 79.9336H194.832V84.5747H196.259C197.478 84.5747 198.343 83.6455 198.343 82.2668Z" fill="#407BFF"/>
<path d="M204.502 79.8427C203.996 79.8427 203.662 80.0245 203.662 80.3932C203.662 81.7264 207.907 80.9689 207.907 83.8626C207.907 85.5039 206.46 86.3423 204.663 86.3423C203.315 86.3386 202.007 85.8873 200.944 85.0595L201.759 83.4132C202.582 84.1152 203.605 84.541 204.684 84.6303C205.306 84.6303 205.696 84.403 205.696 83.9788C205.696 82.6102 201.45 83.4384 201.45 80.5902C201.45 79.0751 202.731 78.1307 204.674 78.1307C205.81 78.1331 206.925 78.4457 207.897 79.0347L207.102 80.7013C206.309 80.228 205.421 79.9349 204.502 79.8427Z" fill="#407BFF"/>
<path d="M169.38 90.5338C169.214 90.5483 169.059 90.6246 168.946 90.7475C168.833 90.8705 168.77 91.0312 168.77 91.1979C168.77 91.3647 168.833 91.5254 168.946 91.6484C169.059 91.7713 169.214 91.8475 169.38 91.862C169.605 91.8501 169.816 91.7503 169.967 91.5843L170.326 91.9731C170.2 92.106 170.049 92.2127 169.881 92.2873C169.714 92.3618 169.533 92.4026 169.35 92.4074C169.185 92.4181 169.02 92.395 168.865 92.3395C168.71 92.2841 168.568 92.1974 168.448 92.085C168.328 91.9726 168.232 91.8368 168.167 91.6859C168.101 91.5351 168.067 91.3724 168.067 91.208C168.067 91.0436 168.101 90.881 168.167 90.7301C168.232 90.5793 168.328 90.4435 168.448 90.331C168.568 90.2186 168.71 90.132 168.865 90.0766C169.02 90.0211 169.185 89.998 169.35 90.0086C169.709 90.0124 170.053 90.1576 170.306 90.4126L169.947 90.8419C169.879 90.7541 169.794 90.6813 169.696 90.6283C169.598 90.5752 169.491 90.5431 169.38 90.5338Z" fill="#407BFF"/>
<path d="M172.375 91.4732C172.392 91.6757 172.347 91.8783 172.246 92.0546C172.145 92.231 171.993 92.3729 171.81 92.4619C171.627 92.5509 171.422 92.5828 171.22 92.5534C171.019 92.5241 170.831 92.4348 170.682 92.2973C170.532 92.1598 170.427 91.9805 170.381 91.7827C170.335 91.5849 170.35 91.3778 170.423 91.1885C170.497 90.9992 170.626 90.8364 170.794 90.7215C170.961 90.6065 171.16 90.5446 171.363 90.544C171.493 90.5295 171.624 90.5429 171.748 90.5833C171.872 90.6238 171.986 90.6903 172.082 90.7784C172.178 90.8665 172.254 90.9741 172.304 91.094C172.355 91.2138 172.379 91.3432 172.375 91.4732ZM170.989 91.4732C171 91.5481 171.032 91.6182 171.081 91.6754C171.131 91.7326 171.196 91.7743 171.268 91.7956C171.341 91.8169 171.418 91.8169 171.491 91.7956C171.564 91.7743 171.629 91.7326 171.678 91.6754C171.728 91.6182 171.76 91.5481 171.771 91.4732C171.781 91.3984 171.77 91.3221 171.739 91.2534C171.707 91.1847 171.656 91.1265 171.592 91.0858C171.529 91.0451 171.454 91.0236 171.379 91.0238C171.322 91.0254 171.267 91.0389 171.216 91.0632C171.165 91.0875 171.12 91.1222 171.083 91.165C171.046 91.2078 171.019 91.2577 171.003 91.3117C170.987 91.3657 170.982 91.4224 170.989 91.4783V91.4732Z" fill="#407BFF"/>
<path d="M174.541 91.2359V92.3822H173.934V91.4076C173.938 91.3644 173.933 91.3209 173.92 91.2798C173.906 91.2388 173.883 91.2012 173.853 91.1696C173.824 91.138 173.787 91.1131 173.747 91.0967C173.707 91.0802 173.664 91.0726 173.62 91.0742C173.528 91.0755 173.439 91.1125 173.373 91.1774C173.307 91.2424 173.269 91.3302 173.266 91.4227V92.3822H172.669V90.5642H173.266V90.8621C173.329 90.7601 173.418 90.6767 173.524 90.6207C173.629 90.5647 173.749 90.5382 173.868 90.544C173.96 90.5377 174.052 90.5514 174.138 90.5842C174.224 90.617 174.302 90.6682 174.366 90.734C174.43 90.7999 174.479 90.8789 174.509 90.9656C174.539 91.0523 174.55 91.1445 174.541 91.2359Z" fill="#407BFF"/>
<path d="M176.697 90.5641V92.2206C176.697 92.7256 176.297 93.0589 175.685 93.0589C175.396 93.0587 175.114 92.9763 174.87 92.8215L175.083 92.4074C175.247 92.5244 175.443 92.5879 175.644 92.5892C175.918 92.5892 176.079 92.4478 176.079 92.2407V92.0438C176.02 92.1206 175.943 92.1822 175.855 92.2235C175.767 92.2648 175.671 92.2845 175.573 92.2812C175.463 92.2804 175.354 92.2565 175.253 92.211C175.153 92.1656 175.063 92.0995 174.989 92.0172C174.916 91.9348 174.86 91.838 174.827 91.733C174.793 91.628 174.782 91.5171 174.794 91.4075C174.782 91.2996 174.793 91.1905 174.826 91.087C174.858 90.9836 174.913 90.8881 174.985 90.8068C175.057 90.7254 175.145 90.66 175.244 90.6148C175.342 90.5695 175.45 90.5454 175.558 90.5439C175.66 90.5407 175.76 90.561 175.852 90.603C175.945 90.6451 176.026 90.7078 176.09 90.7863V90.5641H176.697ZM176.1 91.4226C176.107 91.3701 176.103 91.3166 176.088 91.2657C176.073 91.2148 176.048 91.1676 176.013 91.1271C175.979 91.0867 175.936 91.0539 175.888 91.0308C175.841 91.0078 175.788 90.995 175.735 90.9934C175.63 91.0048 175.533 91.0547 175.462 91.1335C175.391 91.2122 175.352 91.3143 175.352 91.4201C175.352 91.5259 175.391 91.628 175.462 91.7067C175.533 91.7855 175.63 91.8354 175.735 91.8468C175.789 91.8454 175.843 91.8324 175.891 91.8087C175.94 91.7851 175.983 91.7513 176.017 91.7097C176.052 91.6681 176.077 91.6196 176.091 91.5675C176.106 91.5153 176.108 91.4608 176.1 91.4075V91.4226Z" fill="#407BFF"/>
<path d="M178.321 90.544V91.0894C177.987 91.0541 177.764 91.2056 177.734 91.4581V92.3823H177.137V90.5642H177.734V90.8672C177.794 90.7658 177.88 90.6823 177.983 90.6254C178.086 90.5685 178.203 90.5404 178.321 90.544Z" fill="#407BFF"/>
<path d="M180.153 91.2005V92.3822H179.566V92.1802C179.497 92.2632 179.409 92.3282 179.309 92.3696C179.21 92.411 179.101 92.4274 178.994 92.4175C178.915 92.427 178.834 92.4193 178.758 92.395C178.682 92.3707 178.612 92.3303 178.553 92.2767C178.494 92.223 178.447 92.1573 178.416 92.084C178.385 92.0108 178.37 91.9316 178.372 91.8519C178.372 91.5085 178.62 91.3065 179.07 91.3015H179.546C179.546 91.1298 179.424 91.0288 179.196 91.0288C179.006 91.0376 178.819 91.0876 178.65 91.1752L178.488 90.7712C178.752 90.6453 179.04 90.5782 179.333 90.5742C179.859 90.5439 180.153 90.7813 180.153 91.2005ZM179.566 91.7661V91.6095H179.207C179.04 91.6095 178.954 91.6701 178.954 91.7964C178.954 91.9226 179.045 92.0034 179.201 92.0034C179.28 92.0091 179.358 91.9889 179.424 91.946C179.49 91.9032 179.539 91.84 179.566 91.7661Z" fill="#407BFF"/>
<path d="M181.742 92.2913C181.586 92.3733 181.411 92.4133 181.236 92.4074C181.156 92.4156 181.076 92.4065 181 92.3805C180.924 92.3546 180.855 92.3126 180.797 92.2573C180.74 92.2021 180.694 92.1349 180.665 92.0606C180.636 91.9862 180.624 91.9064 180.628 91.8267V91.0489H180.375V90.655H180.628V90.15H181.225V90.655H181.696V91.0489H181.225V91.7358C181.225 91.8671 181.286 91.9277 181.387 91.9277C181.466 91.9211 181.543 91.9006 181.615 91.8671L181.742 92.2913Z" fill="#407BFF"/>
<path d="M183.811 90.5642V92.3823H183.209V92.0894C183.133 92.2154 183.017 92.3125 182.879 92.3652C182.741 92.4179 182.59 92.4232 182.448 92.3803C182.307 92.3374 182.184 92.2488 182.1 92.1284C182.015 92.008 181.972 91.8627 181.979 91.7156V90.5642H182.576V91.5439C182.571 91.5853 182.575 91.6272 182.588 91.6669C182.6 91.7066 182.621 91.7432 182.649 91.7743C182.677 91.8054 182.711 91.8302 182.749 91.847C182.787 91.8639 182.828 91.8725 182.87 91.8722C183.082 91.8722 183.209 91.7005 183.209 91.4631V90.5642H183.811Z" fill="#407BFF"/>
<path d="M184.884 89.8925V92.3822H184.287V89.8925H184.884Z" fill="#407BFF"/>
<path d="M186.979 91.2005V92.3822H186.392V92.1802C186.324 92.2585 186.239 92.3198 186.143 92.3593C186.047 92.3988 185.944 92.4153 185.84 92.4075C185.761 92.4169 185.681 92.4092 185.605 92.3849C185.528 92.3606 185.459 92.3203 185.4 92.2666C185.34 92.213 185.294 92.1473 185.262 92.074C185.231 92.0007 185.216 91.9215 185.218 91.8419C185.218 91.4985 185.466 91.2965 185.916 91.2914H186.392C186.392 91.1197 186.27 91.0187 186.043 91.0187C185.852 91.0275 185.666 91.0775 185.496 91.1651L185.334 90.7611C185.6 90.6346 185.89 90.5674 186.184 90.5642C186.685 90.544 186.974 90.7813 186.979 91.2005ZM186.392 91.7661V91.6096H186.032C185.866 91.6096 185.779 91.6702 185.779 91.7964C185.779 91.9227 185.871 92.0035 186.027 92.0035C186.106 92.0091 186.184 91.989 186.25 91.9461C186.315 91.9032 186.365 91.84 186.392 91.7661Z" fill="#407BFF"/>
<path d="M188.568 92.2913C188.412 92.3733 188.237 92.4133 188.062 92.4074C187.982 92.4156 187.901 92.4065 187.826 92.3805C187.75 92.3546 187.681 92.3126 187.623 92.2573C187.565 92.2021 187.52 92.1349 187.491 92.0606C187.462 91.9862 187.449 91.9064 187.454 91.8267V91.0489H187.201V90.655H187.454V90.15H188.051V90.655H188.522V91.0489H188.051V91.7358C188.051 91.8671 188.112 91.9277 188.213 91.9277C188.292 91.9211 188.369 91.9006 188.441 91.8671L188.568 92.2913Z" fill="#407BFF"/>
<path d="M189.453 90.5642V92.3822H188.856V90.5642H189.453ZM189.428 90.0592C189.428 90.1133 189.412 90.1662 189.381 90.2112C189.351 90.2561 189.308 90.2911 189.258 90.3116C189.208 90.332 189.152 90.3372 189.099 90.3262C189.046 90.3153 188.997 90.2888 188.959 90.2501C188.921 90.2115 188.896 90.1624 188.886 90.1092C188.876 90.056 188.882 90.001 188.904 89.9513C188.925 89.9015 188.961 89.8593 189.006 89.8299C189.052 89.8006 189.105 89.7855 189.16 89.7865C189.195 89.785 189.231 89.791 189.264 89.8039C189.297 89.8169 189.327 89.8366 189.352 89.8617C189.378 89.8868 189.397 89.9169 189.41 89.95C189.423 89.9832 189.429 90.0186 189.428 90.0541V90.0592Z" fill="#407BFF"/>
<path d="M191.755 91.4732C191.772 91.6757 191.726 91.8783 191.626 92.0546C191.525 92.231 191.373 92.3729 191.19 92.4619C191.007 92.5509 190.802 92.5828 190.6 92.5534C190.399 92.5241 190.211 92.4348 190.061 92.2973C189.912 92.1598 189.807 91.9805 189.761 91.7827C189.715 91.5849 189.73 91.3778 189.803 91.1885C189.877 90.9992 190.006 90.8364 190.174 90.7215C190.341 90.6065 190.54 90.5446 190.743 90.544C190.873 90.5295 191.004 90.5429 191.128 90.5833C191.252 90.6238 191.366 90.6903 191.462 90.7784C191.558 90.8665 191.633 90.9741 191.684 91.094C191.735 91.2138 191.759 91.3432 191.755 91.4732ZM190.369 91.4732C190.38 91.5481 190.412 91.6182 190.461 91.6754C190.511 91.7326 190.576 91.7743 190.648 91.7956C190.721 91.8169 190.798 91.8169 190.871 91.7956C190.944 91.7743 191.009 91.7326 191.058 91.6754C191.108 91.6182 191.14 91.5481 191.15 91.4732C191.161 91.3984 191.15 91.3221 191.118 91.2534C191.087 91.1847 191.036 91.1265 190.972 91.0858C190.908 91.0451 190.834 91.0236 190.759 91.0238C190.702 91.0254 190.647 91.0389 190.596 91.0632C190.545 91.0875 190.5 91.1222 190.463 91.165C190.426 91.2078 190.399 91.2577 190.383 91.3117C190.367 91.3657 190.362 91.4224 190.369 91.4783V91.4732Z" fill="#407BFF"/>
<path d="M193.921 91.2358V92.3822H193.329V91.4075C193.333 91.3644 193.328 91.3209 193.314 91.2798C193.301 91.2388 193.278 91.2012 193.248 91.1696C193.218 91.138 193.182 91.1131 193.142 91.0967C193.102 91.0802 193.059 91.0726 193.015 91.0742C192.923 91.0755 192.834 91.1125 192.768 91.1774C192.702 91.2423 192.664 91.3302 192.661 91.4227V92.3822H192.064V90.5642H192.656V90.8621C192.719 90.76 192.807 90.6766 192.913 90.6207C193.019 90.5647 193.138 90.5382 193.258 90.544C193.349 90.5392 193.44 90.554 193.525 90.5875C193.609 90.621 193.686 90.6724 193.749 90.7381C193.812 90.8038 193.86 90.8823 193.889 90.9682C193.919 91.0541 193.93 91.1454 193.921 91.2358Z" fill="#407BFF"/>
<path d="M194.968 90.9531C194.867 90.9531 194.796 90.9935 194.796 91.0692C194.796 91.3066 195.753 91.1955 195.748 91.8267C195.748 92.2004 195.424 92.4075 194.979 92.4075C194.684 92.4137 194.396 92.3232 194.159 92.1499L194.346 91.7661C194.536 91.9012 194.761 91.9784 194.994 91.9883C195.105 91.9883 195.186 91.953 195.186 91.8772C195.186 91.6298 194.245 91.756 194.245 91.1248C194.245 90.746 194.564 90.5389 194.994 90.5389C195.26 90.5407 195.52 90.6139 195.748 90.751L195.55 91.1399C195.372 91.0367 195.174 90.973 194.968 90.9531Z" fill="#407BFF"/>
<path d="M141.55 70.3282L141.96 69.6414C141.96 69.6414 143.058 68.8738 143.756 69.1364C144.454 69.399 144.571 69.9141 144.49 70.909C144.404 72.0099 143.367 74.1613 142.41 73.328C141.813 72.823 142.82 71.111 142.678 70.3333L141.55 70.3282Z" fill="#FFA8A7"/>
<path d="M143.017 70.3282L143.422 69.6414C143.422 69.6414 144.52 68.8738 145.219 69.1364C145.917 69.399 146.038 69.9141 145.957 70.909C145.866 72.0099 144.829 74.1613 143.878 73.328C143.281 72.823 144.282 71.111 144.141 70.3333L143.017 70.3282Z" fill="#FFA8A7"/>
<path d="M140.057 70.3282L140.462 69.6414C140.462 69.6414 141.565 68.8738 142.264 69.1364C142.962 69.399 143.078 69.9141 142.997 70.909C142.911 72.0099 141.874 74.1613 140.918 73.328C140.32 72.823 141.327 71.111 141.186 70.3333L140.057 70.3282Z" fill="#FFA8A7"/>
<path d="M224.129 70.3282L223.719 69.6414C223.719 69.6414 222.621 68.8738 221.923 69.1364C221.225 69.399 221.108 69.9141 221.189 70.909C221.275 72.0099 222.313 74.1613 223.269 73.328C223.866 72.823 222.859 71.111 223.001 70.3333L224.129 70.3282Z" fill="#FFA8A7"/>
<path d="M222.647 70.3282L222.242 69.6414C222.242 69.6414 221.144 68.8738 220.445 69.1364C219.747 69.399 219.626 69.9141 219.707 70.909C219.798 72.0099 220.835 74.1613 221.791 73.328C222.383 72.823 221.382 71.111 221.523 70.3333L222.647 70.3282Z" fill="#FFA8A7"/>
<path d="M225.607 70.3282L225.202 69.6414C225.202 69.6414 224.099 68.8738 223.401 69.1364C222.702 69.399 222.586 69.9141 222.667 70.909C222.758 72.0099 223.795 74.1613 224.747 73.328C225.344 72.823 224.337 71.111 224.478 70.3333L225.607 70.3282Z" fill="#FFA8A7"/>
<path d="M179.429 215.974V206.515L202.442 193.253V202.717L179.429 215.974Z" fill="#37474F"/>
<path d="M179.429 215.974L156.421 202.717V193.253L179.429 206.515V215.974Z" fill="#263238"/>
<path d="M179.429 206.515L156.421 193.253L179.429 179.992L202.442 193.253L179.429 206.515Z" fill="#455A64"/>
<path d="M179.429 204.717V202.223L199.684 190.552V193.046L179.429 204.717Z" fill="#37474F"/>
<path d="M179.429 204.717L159.179 193.046V190.552L179.429 202.223V204.717Z" fill="#263238"/>
<path d="M179.429 202.222L159.179 190.552L179.429 178.881L199.684 190.552L179.429 202.222Z" fill="#455A64"/>
<path d="M159.705 165.483C158.627 165.483 157.499 165.437 156.345 165.336C147.506 164.538 141.671 160.518 139.491 153.721C138.951 151.981 138.762 150.152 138.936 148.34C139.109 146.527 139.642 144.767 140.503 143.161C141.308 141.596 142.42 140.208 143.774 139.08C145.127 137.952 146.694 137.107 148.381 136.596C155.971 134.349 162.635 137.454 164.624 144.141L170.574 164.129L168.616 164.584C165.685 165.192 162.699 165.494 159.705 165.483ZM153.264 139.596C151.975 139.61 150.694 139.812 149.464 140.197C148.258 140.57 147.14 141.182 146.176 141.997C145.213 142.812 144.424 143.813 143.857 144.939C143.229 146.098 142.838 147.371 142.707 148.683C142.576 149.994 142.707 151.319 143.093 152.58C146.463 163.059 160.52 162.023 165.772 161.246L161.001 145.211C160.156 142.358 157.671 139.596 153.264 139.596Z" fill="#E8B020"/>
<path d="M190.242 164.559L188.289 164.104L194.23 144.121C196.223 137.434 202.902 134.328 210.477 136.576C212.164 137.087 213.731 137.932 215.084 139.06C216.438 140.188 217.55 141.576 218.356 143.141C219.216 144.747 219.749 146.507 219.923 148.32C220.096 150.132 219.908 151.961 219.368 153.701C217.177 160.498 211.348 164.518 202.508 165.316C201.359 165.417 200.231 165.463 199.153 165.463C196.159 165.471 193.173 165.168 190.242 164.559ZM197.832 145.196L193.066 161.231C198.313 162.008 212.37 163.044 215.745 152.564C216.133 151.308 216.267 149.987 216.14 148.678C216.014 147.369 215.628 146.098 215.006 144.939C214.437 143.816 213.647 142.819 212.684 142.007C211.721 141.195 210.604 140.584 209.4 140.212C208.167 139.828 206.885 139.625 205.594 139.611C201.187 139.596 198.728 142.358 197.858 145.196H197.832Z" fill="#E8B020"/>
<path d="M189.878 189.026C189.25 187.778 188.245 186.759 187.004 186.113C182.693 183.633 175.7 183.633 171.389 186.113C170.148 186.759 169.143 187.778 168.515 189.026H168.155V190.612C168.155 192.238 169.233 193.87 171.389 195.112C175.7 197.597 182.693 197.597 187.004 195.112C189.159 193.87 190.237 192.238 190.237 190.612V189.026H189.878Z" fill="#E8B020"/>
<path opacity="0.3" d="M189.878 189.026C189.25 187.778 188.245 186.759 187.004 186.113C182.693 183.633 175.7 183.633 171.389 186.113C170.148 186.759 169.143 187.778 168.515 189.026H168.155V190.612C168.155 192.238 169.233 193.87 171.389 195.112C175.7 197.597 182.693 197.597 187.004 195.112C189.159 193.87 190.237 192.238 190.237 190.612V189.026H189.878Z" fill="black"/>
<path d="M187.004 184.33C186.802 184.214 186.589 184.108 186.371 184.002C185.218 183.224 182.506 181.118 182.506 178.411C182.506 174.225 190.237 169.856 190.237 169.856L167.973 169.684C167.973 169.684 175.766 174.23 175.766 178.411C175.766 181.85 171.379 184.33 171.379 184.33C167.068 186.815 167.068 190.839 171.379 193.324C175.69 195.809 182.683 195.809 186.994 193.324C191.305 190.839 191.315 186.804 187.004 184.33Z" fill="#E8B020"/>
<path d="M152.611 131.01V140.298C152.609 145.688 153.821 151.009 156.158 155.869C158.495 160.728 161.896 165.001 166.111 168.371L166.157 168.417L166.663 168.801C167.073 169.099 167.518 169.391 167.999 169.674C171.041 171.309 174.422 172.217 177.876 172.326C178.811 172.376 179.749 172.376 180.684 172.326C184.287 172.144 187.798 171.26 190.556 169.674L191.022 169.391C191.022 169.391 192.206 168.583 192.676 168.159C192.694 168.14 192.714 168.123 192.737 168.109C196.96 164.737 200.369 160.461 202.712 155.596C205.054 150.731 206.269 145.402 206.267 140.005V131.01H152.611Z" fill="#E8B020"/>
<path d="M164.826 131.01V140.298C164.789 146.671 165.766 153.011 167.72 159.079C168.776 162.37 170.277 165.502 172.183 168.386L172.214 168.432C172.3 168.558 172.386 168.689 172.477 168.816C172.704 169.12 172.947 169.411 173.205 169.689C173.205 169.689 177.441 174.235 177.441 178.416C177.36 180.604 176.517 182.696 175.057 184.33C173.927 185.556 173.299 187.161 173.299 188.827C173.299 190.493 173.927 192.098 175.057 193.324C175.597 193.912 176.253 194.381 176.984 194.702C177.714 195.023 178.504 195.188 179.303 195.188C180.101 195.188 180.891 195.023 181.622 194.702C182.353 194.381 183.008 193.912 183.548 193.324C184.681 192.099 185.309 190.494 185.309 188.827C185.309 187.16 184.681 185.555 183.548 184.33C183.437 184.214 183.325 184.108 183.209 184.001C181.907 182.421 181.167 180.455 181.104 178.411C181.104 174.224 185.309 169.856 185.309 169.856L185.486 169.689L185.739 169.407C185.739 169.407 186.382 168.599 186.635 168.174C186.645 168.157 186.657 168.14 186.67 168.124C191.264 161.382 194.027 151.09 194.027 140.02V131.01H164.826Z" fill="#F4CC64"/>
<path opacity="0.1" d="M164.826 131.01V140.298C164.789 146.671 165.766 153.011 167.72 159.079C168.776 162.37 170.277 165.502 172.183 168.386L172.214 168.432C172.3 168.558 172.386 168.689 172.477 168.816C172.704 169.12 172.947 169.411 173.205 169.689C173.205 169.689 177.441 174.235 177.441 178.416C177.36 180.604 176.517 182.696 175.057 184.33C173.927 185.556 173.299 187.161 173.299 188.827C173.299 190.493 173.927 192.098 175.057 193.324C175.597 193.912 176.253 194.381 176.984 194.702C177.714 195.023 178.504 195.188 179.303 195.188C180.101 195.188 180.891 195.023 181.622 194.702C182.353 194.381 183.008 193.912 183.548 193.324C184.681 192.099 185.309 190.494 185.309 188.827C185.309 187.16 184.681 185.555 183.548 184.33C183.437 184.214 183.325 184.108 183.209 184.001C181.907 182.421 181.167 180.455 181.104 178.411C181.104 174.224 185.309 169.856 185.309 169.856L185.486 169.689L185.739 169.407C185.739 169.407 186.382 168.599 186.635 168.174C186.645 168.157 186.657 168.14 186.67 168.124C191.264 161.382 194.027 151.09 194.027 140.02V131.01H164.826Z" fill="#FFEEBA"/>
<path d="M179.429 146.464C194.243 146.464 206.252 139.545 206.252 131.01C206.252 122.476 194.243 115.557 179.429 115.557C164.615 115.557 152.606 122.476 152.606 131.01C152.606 139.545 164.615 146.464 179.429 146.464Z" fill="#E8B020"/>
<path opacity="0.1" d="M179.429 146.464C194.243 146.464 206.252 139.545 206.252 131.01C206.252 122.476 194.243 115.557 179.429 115.557C164.615 115.557 152.606 122.476 152.606 131.01C152.606 139.545 164.615 146.464 179.429 146.464Z" fill="#F4CC64"/>
<path d="M179.429 142.686C173.013 142.686 166.779 141.222 162.357 138.646C158.567 136.465 156.396 133.672 156.396 130.99C156.396 128.309 158.567 125.516 162.357 123.334C166.794 120.779 173.013 119.294 179.429 119.294C185.845 119.294 192.079 120.759 196.502 123.334C200.292 125.516 202.467 128.309 202.467 130.99C202.467 133.672 200.292 136.465 196.502 138.646C192.069 141.222 185.845 142.686 179.429 142.686Z" fill="#E8B020"/>
<path opacity="0.3" d="M179.429 142.686C173.013 142.686 166.779 141.222 162.357 138.646C158.567 136.465 156.396 133.672 156.396 130.99C156.396 128.309 158.567 125.516 162.357 123.334C166.794 120.779 173.013 119.294 179.429 119.294C185.845 119.294 192.079 120.759 196.502 123.334C200.292 125.516 202.467 128.309 202.467 130.99C202.467 133.672 200.292 136.465 196.502 138.646C192.069 141.222 185.845 142.686 179.429 142.686Z" fill="#FFEEBA"/>
<path d="M89.0271 35.7196C89.0456 35.8328 89.0938 35.939 89.1666 36.0277C89.2395 36.1164 89.3345 36.1843 89.4421 36.2246L91.6988 37.1538C91.8965 37.2351 92.114 37.2556 92.3235 37.2127C92.5329 37.1697 92.7247 37.0653 92.8743 36.9128C93.0238 36.7603 93.1243 36.5666 93.1628 36.3567C93.2013 36.1468 93.176 35.9302 93.0903 35.7347L92.4679 34.3409C91.547 32.3208 88.9259 34.2146 89.0271 35.7196Z" fill="#407BFF"/>
<path d="M271.293 44.32C271.312 44.4332 271.36 44.5395 271.433 44.6282C271.506 44.7169 271.601 44.7848 271.708 44.8251L273.965 45.7543C274.163 45.8368 274.38 45.8582 274.59 45.8155C274.8 45.7729 274.992 45.6683 275.142 45.5153C275.291 45.3623 275.391 45.1679 275.429 44.9575C275.466 44.747 275.439 44.5302 275.351 44.3352L274.724 42.9313C273.813 40.9061 271.192 42.8151 271.293 44.32Z" fill="#407BFF"/>
<path d="M166.901 22.1751C166.909 22.2463 166.938 22.3137 166.982 22.3698C167.027 22.4259 167.086 22.4687 167.154 22.4933L168.52 23.0539C168.638 23.108 168.769 23.1253 168.897 23.1034C169.025 23.0816 169.143 23.0216 169.236 22.9315C169.329 22.8413 169.393 22.7252 169.418 22.5983C169.444 22.4714 169.431 22.3397 169.38 22.2206L169.001 21.3722C168.424 20.1096 166.85 21.2661 166.901 22.1751Z" fill="#407BFF"/>
<path d="M169.319 47.0319C169.328 47.103 169.356 47.1704 169.401 47.2265C169.445 47.2827 169.505 47.3254 169.572 47.35L170.933 47.9106C171.053 47.9599 171.184 47.9724 171.311 47.9464C171.438 47.9205 171.554 47.8572 171.644 47.7648C171.735 47.6725 171.795 47.5552 171.818 47.4282C171.841 47.3012 171.826 47.1702 171.773 47.0521L171.404 46.2036C170.842 44.9462 169.258 46.1178 169.319 47.0319Z" fill="#407BFF"/>
<path d="M226.052 48.1935C225.858 48.864 225.512 49.4809 225.04 49.9964C225.577 50.3367 226.073 50.7384 226.518 51.1933L228.582 49.5974L226.052 48.1935Z" fill="#407BFF"/>
<path d="M193.278 39.5476C193.076 40.2153 192.719 40.826 192.236 41.3303C192.776 41.6693 193.274 42.0711 193.719 42.5272L195.803 40.9515L193.278 39.5476Z" fill="#407BFF"/>
<path d="M227.661 23.4376C227.457 24.1032 227.1 24.712 226.619 25.2153C227.156 25.5572 227.654 25.9587 228.101 26.4122L230.181 24.8416L227.661 23.4376Z" fill="#407BFF"/>
<path opacity="0.7" d="M227.661 23.4376C227.457 24.1032 227.1 24.712 226.619 25.2153C227.156 25.5572 227.654 25.9587 228.101 26.4122L230.181 24.8416L227.661 23.4376Z" fill="white"/>
<path d="M135.382 23.5942C136.091 24.1281 136.667 24.8198 137.062 25.6143C137.708 25.1192 138.409 24.7006 139.152 24.3669C138.823 23.3063 136.794 22.9831 136.465 21.9226L135.382 23.5942Z" fill="#407BFF"/>
<path d="M146.995 41.0374C146.894 41.9214 146.589 42.7701 146.104 43.517C146.859 43.8177 147.575 44.2059 148.239 44.6735C148.988 43.8553 148.239 41.9464 148.988 41.1384L146.995 41.0374Z" fill="#407BFF"/>
<path d="M85.6218 46.8956C86.3328 47.4294 86.9097 48.121 87.3068 48.9156C87.951 48.4206 88.6506 48.002 89.3915 47.6682C89.0812 46.6111 88.7573 45.5522 88.42 44.4917L85.6218 46.8956Z" fill="#407BFF"/>
<path opacity="0.5" d="M85.6218 46.8956C86.3328 47.4294 86.9097 48.121 87.3068 48.9156C87.951 48.4206 88.6506 48.002 89.3915 47.6682C89.0812 46.6111 88.7573 45.5522 88.42 44.4917L85.6218 46.8956Z" fill="white"/>
<path d="M132.336 39.0022C132.132 39.6678 131.775 40.2766 131.293 40.7798C131.832 41.1204 132.33 41.5221 132.776 41.9767L134.856 40.4011L132.336 39.0022Z" fill="#407BFF"/>
<path opacity="0.5" d="M132.336 39.0022C132.132 39.6678 131.775 40.2766 131.293 40.7798C131.832 41.1204 132.33 41.5221 132.776 41.9767L134.856 40.4011L132.336 39.0022Z" fill="white"/>
<path d="M156.629 31.3967C156.425 32.0623 156.068 32.6711 155.586 33.1744C156.124 33.5163 156.622 33.9178 157.069 34.3713L159.149 32.8259L156.629 31.3967Z" fill="#407BFF"/>
<path opacity="0.5" d="M156.629 31.3967C156.425 32.0623 156.068 32.6711 155.586 33.1744C156.124 33.5163 156.622 33.9178 157.069 34.3713L159.149 32.8259L156.629 31.3967Z" fill="white"/>
<path d="M215.472 55.8444C215.269 56.512 214.912 57.1227 214.429 57.6271C214.968 57.9674 215.466 58.369 215.912 58.8239L217.991 57.2483L215.472 55.8444Z" fill="#407BFF"/>
<path opacity="0.5" d="M215.472 55.8444C215.269 56.512 214.912 57.1227 214.429 57.6271C214.968 57.9674 215.466 58.369 215.912 58.8239L217.991 57.2483L215.472 55.8444Z" fill="white"/>
<path d="M188.188 54.2183C188.085 55.1028 187.779 55.9515 187.292 56.6979C188.047 56.9986 188.764 57.3868 189.428 57.8544C190.177 57.0362 189.428 55.1273 190.177 54.3193L188.188 54.2183Z" fill="#407BFF"/>
<path opacity="0.5" d="M188.188 54.2183C188.085 55.1028 187.779 55.9515 187.292 56.6979C188.047 56.9986 188.764 57.3868 189.428 57.8544C190.177 57.0362 189.428 55.1273 190.177 54.3193L188.188 54.2183Z" fill="white"/>
<path d="M278.504 26.2607C278.401 27.1452 278.095 27.994 277.608 28.7404C278.363 29.0411 279.08 29.4292 279.744 29.8968C280.498 29.0787 279.744 27.1698 280.492 26.3617L278.504 26.2607Z" fill="#407BFF"/>
<path opacity="0.5" d="M278.504 26.2607C278.401 27.1452 278.095 27.994 277.608 28.7404C278.363 29.0411 279.08 29.4292 279.744 29.8968C280.498 29.0787 279.744 27.1698 280.492 26.3617L278.504 26.2607Z" fill="white"/>
<path d="M207.365 21.958C207.262 22.84 206.958 23.6866 206.475 24.4326C207.23 24.7351 207.946 25.1249 208.61 25.5941C209.359 24.776 208.61 22.862 209.359 22.059L207.365 21.958Z" fill="#407BFF"/>
<path d="M215.932 38.2245C215.949 38.3382 215.996 38.4452 216.07 38.5342C216.143 38.6231 216.238 38.6906 216.347 38.7295L218.604 39.6638C218.798 39.7375 219.01 39.753 219.214 39.7085C219.417 39.6639 219.603 39.5612 219.749 39.4128C219.895 39.2645 219.995 39.0769 220.036 38.8731C220.077 38.6692 220.057 38.4579 219.98 38.2649L219.347 36.866C218.462 34.8106 215.816 36.7195 215.932 38.2245Z" fill="#407BFF"/>
<path opacity="0.2" d="M215.932 38.2245C215.949 38.3382 215.996 38.4452 216.07 38.5342C216.143 38.6231 216.238 38.6906 216.347 38.7295L218.604 39.6638C218.798 39.7375 219.01 39.753 219.214 39.7085C219.417 39.6639 219.603 39.5612 219.749 39.4128C219.895 39.2645 219.995 39.0769 220.036 38.8731C220.077 38.6692 220.057 38.4579 219.98 38.2649L219.347 36.866C218.462 34.8106 215.816 36.7195 215.932 38.2245Z" fill="white"/>
<path d="M181.615 33.0986C181.622 33.1696 181.649 33.2371 181.693 33.2934C181.737 33.3496 181.796 33.3924 181.863 33.4168L183.229 33.9824C183.349 34.0317 183.48 34.0442 183.607 34.0182C183.734 33.9923 183.85 33.929 183.94 33.8367C184.03 33.7443 184.091 33.627 184.114 33.5C184.137 33.373 184.121 33.242 184.069 33.1239L183.69 32.2755C183.133 31.0331 181.554 32.1896 181.615 33.0986Z" fill="#407BFF"/>
<path opacity="0.2" d="M181.615 33.0986C181.622 33.1696 181.649 33.2371 181.693 33.2934C181.737 33.3496 181.796 33.3924 181.863 33.4168L183.229 33.9824C183.349 34.0317 183.48 34.0442 183.607 34.0182C183.734 33.9923 183.85 33.929 183.94 33.8367C184.03 33.7443 184.091 33.627 184.114 33.5C184.137 33.373 184.121 33.242 184.069 33.1239L183.69 32.2755C183.133 31.0331 181.554 32.1896 181.615 33.0986Z" fill="white"/>
<path d="M151.356 56.6272C151.363 56.6982 151.39 56.7657 151.434 56.822C151.478 56.8783 151.537 56.921 151.604 56.9454L152.97 57.511C153.09 57.5588 153.22 57.5701 153.346 57.5435C153.472 57.5168 153.587 57.4534 153.676 57.3614C153.766 57.2693 153.826 57.1527 153.849 57.0265C153.872 56.9003 153.857 56.7701 153.805 56.6525L153.431 55.8041C152.874 54.5415 151.295 55.7182 151.356 56.6272Z" fill="#407BFF"/>
<path opacity="0.2" d="M151.356 56.6272C151.363 56.6982 151.39 56.7657 151.434 56.822C151.478 56.8783 151.537 56.921 151.604 56.9454L152.97 57.511C153.09 57.5588 153.22 57.5701 153.346 57.5435C153.472 57.5168 153.587 57.4534 153.676 57.3614C153.766 57.2693 153.826 57.1527 153.849 57.0265C153.872 56.9003 153.857 56.7701 153.805 56.6525L153.431 55.8041C152.874 54.5415 151.295 55.7182 151.356 56.6272Z" fill="white"/>
<path d="M77.288 27.2708C77.9989 27.8046 78.5758 28.4962 78.9729 29.2908C79.6169 28.7942 80.3165 28.3739 81.0577 28.0384C80.7338 26.9779 78.7048 26.6546 78.3759 25.5941L77.288 27.2708Z" fill="#407BFF"/>
<path opacity="0.2" d="M77.288 27.2708C77.9989 27.8046 78.5758 28.4962 78.9729 29.2908C79.6169 28.7942 80.3165 28.3739 81.0577 28.0384C80.7338 26.9779 78.7048 26.6546 78.3759 25.5941L77.288 27.2708Z" fill="white"/>
<path d="M279.941 47.5269C279.843 48.4102 279.538 49.258 279.05 50.0014C279.805 50.3039 280.522 50.6938 281.186 51.163C281.935 50.3448 281.186 48.4308 281.935 47.6279L279.941 47.5269Z" fill="#407BFF"/>
<path opacity="0.2" d="M279.941 47.5269C279.843 48.4102 279.538 49.258 279.05 50.0014C279.805 50.3039 280.522 50.6938 281.186 51.163C281.935 50.3448 281.186 48.4308 281.935 47.6279L279.941 47.5269Z" fill="white"/>
</g>
<defs>
<clipPath id="clip0_102_7099">
<rect width="253" height="221" fill="white" transform="translate(53)"/>
</clipPath>
</defs>
</svg>
