<svg width="358" height="213" viewBox="0 0 358 213" fill="none" xmlns="http://www.w3.org/2000/svg">
<rect y="5" width="358" height="208" rx="4" fill="#BFBAFF"/>
<path d="M130.068 53.8336C126.197 53.8336 122.485 52.296 119.748 49.5589C117.011 46.8219 115.473 43.1096 115.473 39.2389C115.473 35.3681 117.011 31.6559 119.748 28.9188C122.485 26.1818 126.197 24.6441 130.068 24.6441C133.939 24.6441 137.651 26.1818 140.388 28.9188C143.125 31.6559 144.663 35.3681 144.663 39.2389C144.663 43.1096 143.125 46.8219 140.388 49.5589C137.651 52.296 133.939 53.8336 130.068 53.8336Z" fill="#EBEBEB"/>
<path d="M126.468 35.9885H123.448V45.7481H126.468V35.9885Z" fill="white"/>
<path d="M124.943 34.7104C125.3 34.7138 125.65 34.611 125.949 34.4151C126.248 34.2191 126.481 33.9389 126.62 33.6099C126.759 33.281 126.797 32.9181 126.73 32.5675C126.662 32.2168 126.492 31.8941 126.241 31.6404C125.989 31.3867 125.668 31.2134 125.318 31.1425C124.968 31.0715 124.605 31.1062 124.275 31.2421C123.944 31.378 123.662 31.6089 123.463 31.9056C123.264 32.2023 123.158 32.5513 123.158 32.9085C123.157 33.3838 123.344 33.8402 123.679 34.1779C124.013 34.5156 124.468 34.7071 124.943 34.7104Z" fill="white"/>
<path d="M131.299 40.6234C131.299 39.2516 131.93 38.4337 133.14 38.4337C134.247 38.4337 134.784 39.2176 134.784 40.6234V45.7354H137.787V39.5669C137.787 36.9512 136.309 35.6903 134.239 35.6903C133.651 35.6827 133.072 35.827 132.557 36.1091C132.042 36.3912 131.609 36.8017 131.299 37.3006V35.9885H128.398V45.7439H131.299V40.6234Z" fill="white"/>
<path d="M149.626 10.1771L151.624 13.8279L155.279 15.8301L151.624 17.8281L149.626 21.4789L147.628 17.8281L143.973 15.8301L147.628 13.8279L149.626 10.1771Z" fill="#F5F5F5"/>
<path d="M232.973 109.171L234.472 111.914L237.211 113.41L234.472 114.909L232.973 117.653L231.473 114.909L228.734 113.41L231.473 111.914L232.973 109.171Z" fill="#EBEBEB"/>
<path d="M237.211 95.6412L237.889 96.8766L239.124 97.554L237.889 98.2313L237.211 99.4667L236.538 98.2313L235.299 97.554L236.538 96.8766L237.211 95.6412Z" fill="#E0E0E0"/>
<path d="M135.35 11.5488L136.028 12.7885L137.263 13.4616L136.028 14.1389L135.35 15.3743L134.677 14.1389L133.438 13.4616L134.677 12.7885L135.35 11.5488Z" fill="#E0E0E0"/>
<path d="M101.449 126.42C102.235 126.06 102.899 125.477 103.358 124.744C103.816 124.012 104.05 123.16 104.031 122.296C104.031 119.855 102.135 117.895 99.8476 117.913C97.56 117.93 95.724 119.928 95.7453 122.368C95.7391 123.24 95.9916 124.094 96.4708 124.822C96.9501 125.55 97.6346 126.119 98.4376 126.458C92.0731 127.502 92.448 134.429 92.448 134.429L107.524 134.301C107.524 134.301 107.784 127.293 101.449 126.42Z" fill="#E0E0E0"/>
<path d="M246.081 172.078C245.974 171.532 245.677 171.041 245.243 170.693C244.808 170.346 244.264 170.164 243.707 170.18C243.151 170.196 242.618 170.41 242.205 170.783C241.791 171.155 241.524 171.663 241.45 172.215C241.373 171.664 241.102 171.158 240.687 170.788C240.271 170.418 239.738 170.208 239.182 170.195C238.626 170.181 238.083 170.366 237.65 170.716C237.217 171.065 236.923 171.557 236.819 172.104C236.708 172.912 236.912 173.731 237.39 174.392C237.863 175.043 238.419 175.63 239.043 176.138C239.895 176.892 240.666 177.595 241.51 178.345C242.362 177.587 243.056 176.875 243.891 176.117C244.513 175.603 245.064 175.011 245.531 174.353C245.997 173.693 246.194 172.879 246.081 172.078Z" fill="#EBEBEB"/>
<path d="M255.9 82.2819L257.514 81.9624L260.07 76.3477L259.431 73.1229C259.431 73.1229 261.898 72.4754 262.443 76.7567C262.989 81.038 263.091 79.9005 263.091 79.9005C263.091 79.9005 268.394 78.8696 268.927 79.2402C269.315 79.5129 270.503 84.7527 271.125 87.5984C271.297 88.2804 271.236 89.0005 270.951 89.6437C270.666 90.2869 270.174 90.8161 269.553 91.1469C269.376 91.234 269.189 91.2971 268.995 91.3344C267.675 91.5985 260.705 91.8626 260.705 91.8626L257.915 92.4164L255.9 82.2819Z" fill="#E0E0E0"/>
<path d="M251.099 82.3117L254.281 93.1662L257.05 92.6167L254.903 81.792L251.099 82.3117Z" fill="#E0E0E0"/>
<path d="M272.42 199.93C272.42 199.994 230.174 200.041 178.074 200.041C125.974 200.041 83.715 199.994 83.715 199.93C83.715 199.866 125.953 199.82 178.074 199.82C230.195 199.82 272.42 199.871 272.42 199.93Z" fill="#263238"/>
<path d="M239.601 78.0219C235.473 80.0286 230.716 80.3136 226.378 78.8141C222.039 77.3147 218.473 74.1536 216.465 70.0259C214.458 65.8973 214.173 61.1409 215.673 56.8023C217.172 52.4637 220.333 48.8982 224.461 46.8898C226.505 45.8956 228.725 45.3138 230.994 45.1775C233.263 45.0413 235.537 45.3534 237.685 46.0959C239.834 46.8384 241.815 47.9968 243.515 49.505C245.216 51.0132 246.603 52.8416 247.597 54.8858C248.591 56.93 249.173 59.1499 249.309 61.4189C249.446 63.6879 249.134 65.9616 248.391 68.11C247.649 70.2584 246.49 72.2395 244.982 73.9402C243.474 75.6409 241.645 77.0278 239.601 78.0219Z" fill="#407BFF"/>
<path d="M227.754 66.3239C227.818 66.3225 227.88 66.3068 227.937 66.2782C227.993 66.2496 228.043 66.2087 228.081 66.1584C228.12 66.1082 228.147 66.05 228.161 65.9879C228.174 65.9259 228.173 65.8617 228.159 65.7999C228.116 65.5912 228.001 65.063 227.959 64.8457C227.899 64.5432 227.827 64.4623 227.533 64.326C226.769 63.9751 226.162 63.3546 225.829 62.5836C224.525 59.8998 225.364 56.5217 228.585 54.9582C231.435 53.5695 233.85 54.5322 234.975 56.8752C236.462 59.9382 236.364 63.18 234.353 64.1598C234.102 64.2978 233.823 64.375 233.537 64.3852C233.251 64.3954 232.966 64.3383 232.707 64.2186C232.447 64.0988 232.219 63.9197 232.041 63.6956C231.863 63.4716 231.74 63.2089 231.682 62.9287C231.35 61.4292 231.256 59.6783 230.787 58.707C230.361 57.855 229.543 57.3396 228.581 57.8082C227.443 58.362 227.102 59.9808 227.869 61.5527C228.143 62.1341 228.536 62.6509 229.024 63.0693C229.024 63.0693 230.259 68.5562 230.472 69.5189C230.898 71.4317 232.27 73.3529 232.402 73.5702C232.421 73.5943 232.446 73.6126 232.475 73.6229C232.504 73.6332 232.535 73.6352 232.565 73.6285C232.595 73.6218 232.622 73.6067 232.644 73.5851C232.665 73.5635 232.68 73.5362 232.687 73.5063C232.726 73.3188 233.267 70.9929 232.913 69.1014C232.815 68.5647 232.24 65.817 232.24 65.817C232.951 66.341 234.332 66.4389 235.478 65.8809C238.886 64.2195 239.695 59.9808 237.667 55.8145C236.138 52.6664 232.04 51.0305 227.988 53.0029C222.94 55.4567 222.156 60.3088 223.622 63.3249C224.508 65.1524 225.978 66.456 227.754 66.3239Z" fill="white"/>
<path d="M256.884 126.846C255.419 126.287 254.078 125.445 252.939 124.368C251.8 123.29 250.884 121.999 250.244 120.568C249.604 119.136 249.253 117.592 249.21 116.025C249.168 114.458 249.435 112.897 249.996 111.433C250.554 109.968 251.395 108.628 252.472 107.488C253.549 106.349 254.84 105.433 256.271 104.793C257.702 104.152 259.245 103.801 260.812 103.757C262.38 103.714 263.94 103.98 265.404 104.54C266.869 105.099 268.21 105.941 269.349 107.018C270.488 108.096 271.404 109.387 272.044 110.818C272.684 112.25 273.035 113.794 273.078 115.361C273.12 116.928 272.853 118.489 272.292 119.953C271.734 121.418 270.893 122.759 269.816 123.898C268.739 125.037 267.448 125.953 266.017 126.594C264.586 127.234 263.043 127.585 261.476 127.629C259.909 127.672 258.348 127.406 256.884 126.846Z" fill="#407BFF"/>
<path fill-rule="evenodd" clip-rule="evenodd" d="M267.381 117.721C267.913 116.155 267.821 114.444 267.125 112.944C266.428 111.444 265.18 110.27 263.64 109.667C262.1 109.063 260.387 109.076 258.856 109.704C257.326 110.331 256.096 111.524 255.423 113.035C255.384 113.12 255.35 113.209 255.316 113.295C254.899 114.38 254.79 115.559 255.001 116.703L252.696 119.484L256.428 119.697C257.147 120.548 258.075 121.197 259.121 121.581C260.166 121.965 261.294 122.07 262.393 121.887C263.491 121.704 264.524 121.239 265.388 120.537C266.253 119.835 266.92 118.92 267.325 117.883C267.347 117.83 267.365 117.776 267.381 117.721ZM259.406 120.588C258.418 120.213 257.563 119.555 256.948 118.696L254.771 118.573L256.113 116.954C255.812 115.863 255.867 114.705 256.271 113.648C256.334 113.486 256.407 113.325 256.484 113.171C257.09 111.969 258.124 111.037 259.382 110.557C260.641 110.077 262.033 110.083 263.286 110.576C264.539 111.068 265.564 112.011 266.159 113.219C266.754 114.427 266.877 115.814 266.503 117.107C266.465 117.244 266.422 117.376 266.371 117.508C265.855 118.839 264.832 119.911 263.526 120.489C262.22 121.066 260.738 121.102 259.406 120.588Z" fill="white"/>
<path fill-rule="evenodd" clip-rule="evenodd" d="M263.615 117.832C263.491 117.704 262.908 117.073 262.788 116.98C262.669 116.886 262.584 116.818 262.43 116.928C262.277 117.039 261.864 117.256 261.745 117.32C261.625 117.384 261.532 117.363 261.412 117.235C261.044 116.898 260.736 116.498 260.505 116.055C260.298 115.639 260.155 115.193 260.079 114.735C260.053 114.556 260.156 114.505 260.258 114.462C260.36 114.419 260.471 114.347 260.577 114.292L260.658 114.24C260.714 114.197 260.767 114.15 260.816 114.1C260.852 114.068 260.879 114.027 260.895 113.982C260.911 113.936 260.914 113.887 260.905 113.84C260.905 113.755 260.876 112.92 260.863 112.583C260.85 112.247 260.709 112.247 260.624 112.213C260.539 112.179 260.445 112.127 260.347 112.093C260.272 112.066 260.192 112.055 260.112 112.06C260.032 112.065 259.954 112.087 259.883 112.123C259.658 112.218 259.454 112.357 259.286 112.534C259.117 112.711 258.987 112.92 258.903 113.15C258.841 113.318 258.803 113.495 258.788 113.674C258.764 114.084 258.811 114.495 258.929 114.888C258.967 115.011 259.329 116.894 260.599 118.053C261.868 119.212 261.949 119.016 262.23 119.093C262.453 119.136 262.683 119.13 262.904 119.076C263.125 119.022 263.331 118.92 263.508 118.777C263.689 118.597 263.813 118.367 263.862 118.117C263.815 118.036 263.734 117.959 263.615 117.832Z" fill="white"/>
<path d="M101.662 71.6702C99.2479 71.6702 96.9324 70.7111 95.2251 69.0038C93.5178 67.2965 92.5587 64.981 92.5587 62.5666C92.5587 60.1521 93.5178 57.8366 95.2251 56.1293C96.9324 54.4221 99.2479 53.463 101.662 53.463C102.858 53.463 104.042 53.6984 105.146 54.1559C106.251 54.6134 107.254 55.284 108.1 56.1293C108.945 56.9747 109.615 57.9783 110.073 59.0828C110.53 60.1873 110.766 61.3711 110.766 62.5666C110.766 63.7621 110.53 64.9459 110.073 66.0504C109.615 67.1549 108.945 68.1585 108.1 69.0038C107.254 69.8492 106.251 70.5197 105.146 70.9772C104.042 71.4347 102.858 71.6702 101.662 71.6702Z" fill="#407BFF"/>
<path d="M96.8145 65.604C97.6888 66.1617 98.6994 66.4688 99.7362 66.4918C100.773 66.5147 101.796 66.2527 102.694 65.7342C103.592 65.2157 104.331 64.4607 104.83 63.5513C105.328 62.642 105.568 61.6132 105.522 60.5772C105.907 60.2977 106.24 59.9532 106.506 59.559C106.141 59.7191 105.755 59.8253 105.36 59.8743C105.777 59.6308 106.091 59.245 106.246 58.788C105.852 59.0225 105.419 59.1855 104.968 59.2694C104.669 58.9426 104.27 58.7245 103.834 58.6496C103.397 58.5747 102.949 58.6473 102.558 58.8558C102.167 59.0643 101.857 59.3969 101.676 59.8011C101.496 60.2054 101.455 60.6583 101.56 61.0884C100.769 61.0476 99.9944 60.8412 99.2878 60.4823C98.5811 60.1235 97.9576 59.6203 97.4577 59.0052C97.2044 59.4441 97.1273 59.9627 97.242 60.4563C97.3567 60.9498 97.6546 61.3813 98.0754 61.6635C97.7588 61.6553 97.4489 61.5705 97.1723 61.4164C97.167 61.8803 97.3237 62.3315 97.6153 62.6923C97.9069 63.0531 98.3151 63.3009 98.7698 63.393C98.4767 63.4729 98.1692 63.4845 97.8709 63.4271C97.9985 63.8218 98.2459 64.1669 98.5789 64.4143C98.9118 64.6617 99.3136 64.7991 99.7283 64.8074C98.8985 65.4435 97.8525 65.7295 96.8145 65.604Z" fill="white"/>
<path d="M118.008 173.642C113.965 174.602 109.706 173.918 106.168 171.739C102.629 169.561 100.1 166.067 99.1361 162.025C98.6584 160.021 98.5803 157.942 98.9063 155.908C99.2323 153.874 99.956 151.924 101.036 150.17C102.116 148.416 103.531 146.892 105.201 145.685C106.87 144.478 108.762 143.612 110.766 143.136C112.769 142.659 114.846 142.581 116.879 142.906C118.912 143.232 120.861 143.954 122.614 145.033C124.368 146.112 125.892 147.525 127.099 149.193C128.307 150.861 129.173 152.75 129.651 154.753C130.128 156.758 130.206 158.837 129.879 160.872C129.552 162.907 128.827 164.857 127.746 166.611C126.664 168.366 125.248 169.89 123.577 171.096C121.906 172.303 120.014 173.168 118.008 173.642Z" fill="#455A64"/>
<path d="M112.755 151.537C114.988 151.004 115.256 150.949 116.163 150.778C116.694 150.659 117.242 150.632 117.782 150.697C118.178 150.745 118.557 150.881 118.894 151.094C119.234 151.3 119.524 151.578 119.746 151.907C120.048 152.361 120.269 152.862 120.402 153.39C120.653 154.263 120.726 154.527 121.254 156.759C121.782 158.992 121.838 159.26 122.008 160.167C122.13 160.698 122.157 161.246 122.089 161.786C122.046 162.183 121.91 162.563 121.693 162.898C121.489 163.239 121.213 163.53 120.883 163.75C120.429 164.051 119.926 164.273 119.397 164.406C118.545 164.657 118.264 164.73 116.031 165.258C113.799 165.786 113.531 165.846 112.623 166.016C112.091 166.138 111.542 166.165 111 166.097C110.604 166.051 110.224 165.915 109.888 165.701C109.552 165.489 109.269 165.201 109.062 164.862C108.758 164.41 108.534 163.908 108.402 163.379C108.155 162.506 108.082 162.246 107.55 160.014C107.017 157.782 106.962 157.513 106.791 156.606C106.674 156.073 106.647 155.525 106.71 154.983C106.763 154.589 106.898 154.211 107.106 153.872C107.315 153.534 107.592 153.243 107.92 153.019C108.373 152.716 108.874 152.492 109.403 152.359C110.255 152.112 110.54 152.039 112.772 151.507M112.415 149.999C110.144 150.54 109.859 150.617 108.977 150.872C108.287 151.043 107.631 151.332 107.038 151.724C106.536 152.072 106.11 152.52 105.79 153.041C105.47 153.562 105.261 154.143 105.177 154.749C105.087 155.459 105.119 156.179 105.271 156.879C105.445 157.778 105.501 158.067 106.042 160.338C106.583 162.608 106.659 162.894 106.894 163.771C107.064 164.462 107.352 165.117 107.746 165.71C108.092 166.231 108.551 166.669 109.088 166.992C109.604 167.317 110.186 167.525 110.792 167.601C111.502 167.691 112.222 167.659 112.922 167.507C113.82 167.337 114.11 167.277 116.381 166.736C118.651 166.195 118.937 166.119 119.814 165.884C120.503 165.71 121.158 165.422 121.752 165.032C122.261 164.69 122.688 164.241 123.005 163.716C123.328 163.198 123.537 162.617 123.618 162.012C123.707 161.302 123.673 160.581 123.52 159.882C123.35 158.979 123.29 158.693 122.749 156.423C122.208 154.152 122.132 153.867 121.897 152.985C121.722 152.296 121.434 151.641 121.045 151.047C120.702 150.54 120.253 150.114 119.729 149.799C119.213 149.471 118.631 149.262 118.025 149.185C117.315 149.095 116.595 149.127 115.895 149.279C114.992 149.454 114.706 149.509 112.436 150.05" fill="white"/>
<path d="M113.365 154.097C112.515 154.299 111.745 154.749 111.152 155.389C110.558 156.029 110.168 156.83 110.03 157.692C109.892 158.554 110.012 159.437 110.376 160.23C110.74 161.024 111.331 161.691 112.074 162.149C112.818 162.606 113.68 162.833 114.552 162.8C115.424 162.768 116.267 162.477 116.975 161.966C117.682 161.454 118.221 160.744 118.525 159.926C118.829 159.108 118.883 158.218 118.681 157.369C118.409 156.23 117.696 155.246 116.7 154.633C115.703 154.02 114.503 153.827 113.365 154.097ZM115.069 161.181C114.517 161.312 113.939 161.275 113.408 161.077C112.877 160.879 112.416 160.528 112.085 160.069C111.753 159.609 111.565 159.062 111.545 158.495C111.524 157.929 111.672 157.369 111.969 156.886C112.267 156.404 112.7 156.021 113.216 155.785C113.731 155.548 114.305 155.47 114.864 155.56C115.424 155.65 115.944 155.904 116.36 156.29C116.775 156.675 117.067 157.175 117.199 157.726C117.286 158.093 117.3 158.474 117.24 158.846C117.181 159.218 117.048 159.575 116.85 159.896C116.652 160.217 116.393 160.495 116.087 160.716C115.782 160.937 115.435 161.095 115.069 161.181Z" fill="white"/>
<path d="M118.792 152.627C118.838 152.826 118.825 153.033 118.754 153.224C118.683 153.415 118.556 153.58 118.391 153.699C118.226 153.818 118.029 153.886 117.825 153.893C117.622 153.901 117.421 153.847 117.247 153.741C117.074 153.634 116.936 153.478 116.851 153.293C116.766 153.107 116.738 152.901 116.77 152.7C116.802 152.499 116.893 152.312 117.032 152.162C117.17 152.013 117.35 151.908 117.548 151.86C117.68 151.828 117.817 151.823 117.951 151.844C118.086 151.865 118.214 151.913 118.33 151.984C118.446 152.055 118.546 152.149 118.626 152.259C118.705 152.37 118.761 152.495 118.792 152.627Z" fill="white"/>
<path d="M236.781 159.844C235.821 159.844 234.87 159.656 233.982 159.288C233.095 158.921 232.288 158.383 231.609 157.704C230.93 157.025 230.391 156.219 230.023 155.332C229.656 154.445 229.467 153.494 229.467 152.534C229.467 151.573 229.656 150.622 230.023 149.735C230.391 148.848 230.93 148.042 231.609 147.363C232.288 146.684 233.095 146.146 233.982 145.779C234.87 145.412 235.821 145.223 236.781 145.223C237.742 145.222 238.694 145.41 239.582 145.776C240.471 146.143 241.278 146.681 241.958 147.36C242.638 148.039 243.178 148.845 243.546 149.733C243.914 150.621 244.104 151.573 244.104 152.534C244.104 153.495 243.914 154.446 243.546 155.334C243.178 156.222 242.638 157.028 241.958 157.707C241.278 158.386 240.471 158.924 239.582 159.291C238.694 159.658 237.742 159.845 236.781 159.844Z" fill="#455A64"/>
<path d="M235.665 156.951H237.446V152.508H238.685L238.822 151.017H237.446V150.165C237.446 149.816 237.518 149.675 237.872 149.675H238.839V148.124H237.603C236.278 148.124 235.682 148.708 235.682 149.828V151.021H234.732V152.508H235.656L235.665 156.951Z" fill="white"/>
<path d="M211.843 200.241L153.102 200.22C149.712 200.22 146.462 198.874 144.065 196.477C141.668 194.08 140.322 190.829 140.322 187.44L140.347 40.1803C140.347 38.4998 140.679 36.8359 141.323 35.2837C141.967 33.7315 142.91 32.3215 144.1 31.1344C145.289 29.9474 146.701 29.0065 148.254 28.3658C149.808 27.725 151.473 27.3969 153.153 27.4003L211.89 27.4344C215.279 27.4344 218.53 28.7808 220.927 31.1776C223.323 33.5743 224.67 36.8249 224.67 40.2144L224.644 187.44C224.647 189.122 224.318 190.788 223.676 192.342C223.033 193.897 222.09 195.309 220.901 196.498C219.712 197.687 218.3 198.63 216.745 199.273C215.191 199.915 213.525 200.244 211.843 200.241Z" fill="#263238"/>
<path d="M211.826 32.5975H200.435C199.687 32.6154 198.977 32.9282 198.459 33.4676C197.941 34.0071 197.657 34.7295 197.67 35.4772V37.5433C197.679 37.9146 197.614 38.2839 197.479 38.6301C197.345 38.9763 197.143 39.2926 196.887 39.5609C196.63 39.8292 196.323 40.0442 195.983 40.1936C195.643 40.343 195.277 40.4239 194.905 40.4316H172.706C172.335 40.4233 171.969 40.3419 171.629 40.192C171.289 40.0422 170.982 39.8268 170.725 39.5581C170.468 39.2895 170.267 38.973 170.132 38.6265C169.998 38.2801 169.933 37.9106 169.942 37.5391V35.4602C169.957 34.7106 169.674 33.9855 169.156 33.4435C168.638 32.9015 167.926 32.5866 167.177 32.5677H163.164H153.2C152.023 32.5649 150.858 32.7942 149.77 33.2425C148.682 33.6908 147.693 34.3493 146.86 35.1803C146.027 36.0113 145.366 36.9985 144.916 38.0852C144.465 39.172 144.233 40.3371 144.233 41.5137L144.203 185.25C144.203 187.623 145.145 189.898 146.823 191.576C148.501 193.254 150.776 194.196 153.149 194.196L211.775 194.23C212.95 194.23 214.113 193.999 215.198 193.549C216.284 193.1 217.27 192.441 218.101 191.61C218.931 190.779 219.59 189.793 220.04 188.708C220.489 187.622 220.721 186.459 220.721 185.284L220.751 41.5435C220.751 39.1745 219.811 36.9023 218.138 35.2252C216.465 33.5481 214.195 32.6031 211.826 32.5975Z" fill="white"/>
<path d="M212.682 44.2742C212.682 44.3125 211.2 44.3551 209.376 44.3679C207.553 44.3807 206.066 44.3679 206.066 44.3295C206.066 44.2912 207.545 44.2443 209.372 44.2316C211.2 44.2188 212.682 44.2358 212.682 44.2742Z" fill="#263238"/>
<path d="M212.695 45.9654C212.695 46.0037 211.217 46.0463 209.389 46.0634C207.562 46.0804 206.079 46.0634 206.079 46.0208C206.079 45.9782 207.562 45.9398 209.389 45.9228C211.217 45.9058 212.695 45.9271 212.695 45.9654Z" fill="#263238"/>
<path d="M212.712 47.6566C212.712 47.6949 211.23 47.7418 209.402 47.7546C207.575 47.7673 206.096 47.7546 206.092 47.712C206.088 47.6694 207.575 47.631 209.402 47.614C211.23 47.5969 212.712 47.6182 212.712 47.6566Z" fill="#263238"/>
<path d="M150.384 49.3095H150.559H151.04L152.821 49.2669L152.77 49.3137C152.77 48.9218 152.77 48.4916 152.748 48.0357C152.748 47.7972 152.748 47.5714 152.748 47.2945C152.776 47.1514 152.849 47.0209 152.957 46.9221C153.064 46.8233 153.2 46.7612 153.345 46.745C153.634 46.745 153.886 46.745 154.197 46.745C154.36 46.7713 154.508 46.8548 154.615 46.9804C154.722 47.1061 154.78 47.2658 154.78 47.4308C154.78 48.0357 154.78 48.6619 154.802 49.3137L154.721 49.2328H156.966L156.881 49.318C156.881 48.4149 156.881 47.4777 156.855 46.5192C156.855 46.2806 156.855 46.0463 156.855 45.8077C156.845 45.7017 156.812 45.5992 156.757 45.5078C156.703 45.4164 156.628 45.3384 156.54 45.2795L155.56 44.3082L154.61 43.3753L154.154 42.9237C153.997 42.7704 153.873 42.6128 153.69 42.5744C153.602 42.5513 153.51 42.5481 153.421 42.5651C153.332 42.582 153.248 42.6187 153.174 42.6724C153.038 42.7874 152.893 42.9493 152.748 43.0984L151.939 43.9121C151.432 44.436 150.904 44.9174 150.52 45.3732C150.407 45.6418 150.368 45.9364 150.41 46.2252C150.41 46.5021 150.41 46.7662 150.41 47.0133C150.41 47.499 150.41 47.925 150.41 48.2913C150.41 48.6577 150.41 48.8835 150.41 49.105C150.416 49.2029 150.416 49.301 150.41 49.3989C150.405 49.3095 150.405 49.2199 150.41 49.1305C150.41 48.9133 150.41 48.6449 150.41 48.3254C150.41 48.0059 150.41 47.5288 150.38 47.0474C150.38 46.7918 150.38 46.5234 150.38 46.238C150.38 46.0932 150.38 45.9483 150.38 45.812C150.379 45.6476 150.421 45.4859 150.503 45.3434C150.929 44.8365 151.415 44.3849 151.926 43.8439L152.727 43.0217C152.872 42.8811 152.987 42.7405 153.153 42.5957C153.245 42.5259 153.351 42.4778 153.464 42.4549C153.577 42.432 153.693 42.435 153.805 42.4636C154.017 42.5415 154.204 42.6755 154.346 42.8513L154.806 43.3029L155.756 44.2358L156.74 45.1986C156.832 45.2813 156.916 45.3726 156.991 45.4712C157.065 45.5843 157.106 45.7154 157.111 45.8503C157.111 46.0889 157.111 46.3275 157.111 46.566C157.111 47.5245 157.111 48.4617 157.132 49.3648V49.45H157.047H154.802H154.644V49.3691C154.644 48.7173 154.644 48.0911 154.644 47.4862C154.647 47.3562 154.603 47.2296 154.52 47.1294C154.437 47.0293 154.321 46.9624 154.192 46.9409C153.933 46.9409 153.626 46.9409 153.375 46.9409C153.26 46.9524 153.151 46.9997 153.065 47.0762C152.979 47.1526 152.919 47.2544 152.893 47.3669C152.893 47.5927 152.893 47.8526 152.893 48.0826C152.893 48.5469 152.893 48.9815 152.893 49.3606V49.4117H152.842H151.032H150.559C150.497 49.3838 150.439 49.3495 150.384 49.3095Z" fill="#263238"/>
<path d="M189.15 161.629C188.946 161.661 188.739 161.675 188.532 161.671L186.854 161.705C185.44 161.727 183.48 161.739 181.316 161.739C179.152 161.739 177.192 161.739 175.778 161.705L174.099 161.671C173.893 161.675 173.686 161.66 173.482 161.629C173.686 161.594 173.893 161.58 174.099 161.586L175.778 161.548C177.192 161.548 179.152 161.518 181.316 161.518C183.48 161.518 185.435 161.518 186.854 161.548L188.532 161.586C188.739 161.58 188.946 161.594 189.15 161.629Z" fill="#455A64"/>
<path d="M213.76 165.48C213.76 165.544 204.742 165.59 193.619 165.59C182.496 165.59 173.478 165.544 173.478 165.48C173.478 165.416 182.496 165.369 193.619 165.369C204.742 165.369 213.76 165.42 213.76 165.48Z" fill="#455A64"/>
<path d="M201.172 169.122C201.172 169.186 194.973 169.233 187.327 169.233C179.68 169.233 173.478 169.186 173.478 169.122C173.478 169.058 179.676 169.011 187.327 169.011C194.978 169.011 201.172 169.045 201.172 169.122Z" fill="#455A64"/>
<path d="M214.557 176.164L213.304 174.907L212.111 176.096V172.5H214.552L214.557 176.164ZM213.304 174.749L213.343 174.788L214.446 175.895V172.615H212.226V175.831L213.304 174.749Z" fill="#263238"/>
<path d="M181.231 175.695L180.805 175.499C180.55 175.619 180.26 175.639 179.992 175.557C179.723 175.474 179.495 175.294 179.352 175.052C179.209 174.81 179.162 174.523 179.219 174.248C179.276 173.973 179.434 173.729 179.661 173.564C179.889 173.399 180.17 173.325 180.449 173.356C180.729 173.387 180.986 173.521 181.172 173.732C181.358 173.944 181.458 174.216 181.453 174.497C181.448 174.778 181.338 175.048 181.145 175.252L181.231 175.695ZM180.204 173.301C179.913 173.321 179.64 173.452 179.442 173.666C179.244 173.881 179.135 174.163 179.138 174.455C179.14 174.747 179.255 175.027 179.457 175.237C179.659 175.448 179.934 175.574 180.225 175.589C180.42 175.575 180.608 175.515 180.775 175.414L181.103 175.559L181.026 175.239C181.176 175.075 181.275 174.871 181.311 174.652C181.347 174.432 181.318 174.207 181.227 174.004C181.137 173.801 180.989 173.628 180.802 173.508C180.615 173.388 180.397 173.325 180.174 173.327L180.204 173.301Z" fill="#263238"/>
<path d="M184.068 175.512L183.565 174.277L182.615 173.425H184.916L184.068 175.512ZM182.828 173.497L183.638 174.238L184.064 175.29L184.788 173.48L182.828 173.497Z" fill="#263238"/>
<path d="M184.867 173.397L183.611 174.215L183.657 174.286L184.914 173.468L184.867 173.397Z" fill="#263238"/>
<path d="M177.605 173.663C177.572 173.499 177.481 173.352 177.349 173.248C177.217 173.144 177.053 173.09 176.885 173.096C176.717 173.101 176.557 173.166 176.432 173.279C176.308 173.391 176.227 173.544 176.204 173.71C176.181 173.542 176.099 173.387 175.972 173.275C175.845 173.162 175.682 173.098 175.512 173.095C175.342 173.092 175.177 173.15 175.046 173.258C174.915 173.366 174.827 173.517 174.798 173.684C174.765 173.93 174.828 174.178 174.973 174.379C175.117 174.576 175.286 174.754 175.475 174.907C175.735 175.133 175.97 175.333 176.225 175.572C176.481 175.342 176.694 175.124 176.949 174.894C177.137 174.738 177.303 174.557 177.444 174.358C177.586 174.156 177.644 173.907 177.605 173.663Z" fill="#407BFF"/>
<path d="M217.121 179.346C217.121 179.346 217.121 179.205 217.121 178.946C217.121 178.686 217.121 178.29 217.121 177.778C217.121 176.752 217.121 175.222 217.1 173.28C217.1 169.365 217.079 163.669 217.062 156.525L217.134 156.598L149.012 156.636L149.123 156.525C149.123 164.457 149.123 172.147 149.123 179.346L149.017 179.24L197.764 179.286L211.992 179.316H215.826H216.814H217.155H216.827H215.852H212.056L197.849 179.346L149.029 179.397H148.919V179.346C148.919 172.147 148.919 164.457 148.919 156.525V156.414H149.038L217.16 156.453H217.232V156.525C217.232 163.686 217.202 169.399 217.194 173.327C217.194 175.278 217.194 176.781 217.194 177.808C217.194 178.311 217.194 178.694 217.194 178.958C217.194 179.222 217.121 179.346 217.121 179.346Z" fill="#263238"/>
<path d="M151.833 160.341L151.746 175.429L170.618 175.538L170.705 160.449L151.833 160.341Z" fill="#EBEBEB"/>
<path d="M170.7 160.44H170.338H169.307H165.435L151.803 160.41L151.905 160.312C151.883 164.807 151.858 169.953 151.832 175.397C151.854 175.427 151.624 175.188 151.722 175.286H153.021H154.299H156.855L161.754 175.316L170.589 175.38L170.5 175.474C170.542 170.941 170.581 167.184 170.61 164.542C170.61 163.23 170.64 162.199 170.649 161.48C170.649 161.134 170.649 160.866 170.649 160.67C170.649 160.474 170.649 160.385 170.649 160.385C170.649 160.385 170.649 160.47 170.649 160.649C170.649 160.828 170.649 161.105 170.649 161.445C170.649 162.157 170.649 163.184 170.649 164.487C170.649 167.141 170.649 170.92 170.649 175.474V175.563H170.555L161.72 175.529L156.821 175.503H154.265H152.987H151.688L151.573 175.388C151.611 169.94 151.641 164.794 151.67 160.304V160.202H151.773L165.447 160.325L169.281 160.376H170.291H170.547L170.7 160.44Z" fill="#263238"/>
<path d="M152.48 161.294L152.404 174.483L169.95 174.584L170.026 161.395L152.48 161.294Z" fill="#E0E0E0"/>
<path d="M152.395 174.472L158.572 166.31L162.338 171.461L164.928 168.734L169.942 174.575L152.395 174.472Z" fill="#F5F5F5"/>
<path d="M163.986 165.339C163.985 165.613 163.903 165.881 163.75 166.108C163.597 166.335 163.38 166.512 163.127 166.616C162.873 166.72 162.594 166.746 162.326 166.692C162.057 166.637 161.811 166.504 161.618 166.309C161.425 166.115 161.295 165.867 161.242 165.598C161.19 165.329 161.219 165.051 161.325 164.798C161.432 164.546 161.61 164.33 161.839 164.179C162.068 164.028 162.336 163.949 162.61 163.95C162.792 163.951 162.972 163.987 163.139 164.057C163.307 164.128 163.459 164.23 163.586 164.359C163.714 164.488 163.815 164.641 163.884 164.809C163.953 164.977 163.987 165.157 163.986 165.339Z" fill="#F5F5F5"/>
<path d="M183.65 62.5666C183.583 62.578 183.514 62.578 183.446 62.5666L182.871 62.5879L180.741 62.6262C178.947 62.6262 176.481 62.656 173.729 62.656C170.977 62.656 168.51 62.656 166.717 62.6262L164.587 62.5879L164.007 62.5666C163.941 62.5784 163.873 62.5784 163.807 62.5666C163.873 62.5504 163.94 62.5432 164.007 62.5453H164.587L166.717 62.5112C168.51 62.4899 170.977 62.4771 173.729 62.4771C176.481 62.4771 178.947 62.4771 180.741 62.5112L182.871 62.5453H183.446C183.515 62.5435 183.583 62.5507 183.65 62.5666Z" fill="#263238"/>
<path d="M211.528 145.969L209.67 144.103L207.894 145.871V140.529H211.524L211.528 145.969ZM209.67 143.873L209.726 143.928L211.366 145.573V140.699H208.06V145.479L209.67 143.873Z" fill="#263238"/>
<path d="M164.301 145.407L163.449 145.019C162.953 145.25 162.389 145.287 161.867 145.124C161.344 144.961 160.902 144.608 160.625 144.136C160.349 143.664 160.259 143.106 160.372 142.57C160.485 142.035 160.794 141.561 161.238 141.242C161.682 140.922 162.23 140.779 162.773 140.842C163.317 140.904 163.818 141.167 164.178 141.579C164.538 141.991 164.731 142.523 164.72 143.07C164.709 143.617 164.495 144.14 164.118 144.538L164.301 145.407ZM162.269 140.699C161.974 140.702 161.682 140.762 161.41 140.878C161.138 140.993 160.892 141.161 160.685 141.372C160.477 141.582 160.314 141.832 160.203 142.105C160.092 142.379 160.037 142.672 160.039 142.968C160.042 143.263 160.102 143.555 160.218 143.827C160.333 144.099 160.501 144.345 160.712 144.553C160.922 144.76 161.172 144.923 161.445 145.034C161.719 145.145 162.012 145.2 162.308 145.198C162.691 145.175 163.063 145.058 163.39 144.857L163.428 144.836L164.067 145.121L163.922 144.491L163.952 144.461C164.248 144.138 164.443 143.735 164.513 143.303C164.583 142.871 164.525 142.427 164.346 142.027C164.167 141.628 163.875 141.289 163.506 141.053C163.137 140.817 162.707 140.694 162.269 140.699Z" fill="#263238"/>
<path d="M169.891 145.036L168.894 142.603L167.028 140.899L171.56 140.865L169.891 145.036ZM167.45 141.061L169.043 142.523L169.895 144.593L171.318 141.032L167.45 141.061Z" fill="#263238"/>
<path d="M171.47 140.858L168.999 142.466L169.09 142.605L171.561 140.997L171.47 140.858Z" fill="#263238"/>
<path d="M157.17 141.432C157.106 141.106 156.928 140.813 156.667 140.606C156.407 140.399 156.082 140.292 155.75 140.302C155.418 140.313 155.1 140.442 154.854 140.665C154.607 140.888 154.449 141.192 154.405 141.521C154.357 141.193 154.193 140.893 153.943 140.674C153.694 140.455 153.375 140.332 153.043 140.326C152.711 140.321 152.388 140.433 152.131 140.643C151.874 140.854 151.701 141.148 151.641 141.475C151.577 141.956 151.7 142.444 151.986 142.838C152.272 143.226 152.605 143.577 152.978 143.881C153.485 144.307 153.95 144.733 154.457 145.189C154.951 144.738 155.377 144.312 155.875 143.856C156.243 143.546 156.571 143.191 156.851 142.799C157.128 142.401 157.242 141.912 157.17 141.432Z" fill="#407BFF"/>
<path d="M156.757 65.6423C158.456 65.6423 159.833 64.2652 159.833 62.5666C159.833 60.8679 158.456 59.4908 156.757 59.4908C155.058 59.4908 153.681 60.8679 153.681 62.5666C153.681 64.2652 155.058 65.6423 156.757 65.6423Z" fill="#EBEBEB"/>
<path d="M210.369 128.332C210.369 128.396 197.478 128.447 181.58 128.447C165.682 128.447 152.787 128.396 152.787 128.332C152.787 128.269 165.677 128.222 181.58 128.222C197.483 128.222 210.369 128.273 210.369 128.332Z" fill="#455A64"/>
<path d="M210.369 123.54C210.369 123.6 197.478 123.651 181.58 123.651C165.682 123.651 152.787 123.6 152.787 123.54C152.787 123.48 165.677 123.429 181.58 123.429C197.483 123.429 210.369 123.48 210.369 123.54Z" fill="#455A64"/>
<path d="M184.127 133.193C184.127 133.253 177.111 133.304 168.459 133.304C159.807 133.304 152.787 133.253 152.787 133.193C152.787 133.134 159.803 133.082 168.459 133.082C177.115 133.082 184.127 133.134 184.127 133.193Z" fill="#455A64"/>
<path d="M180.264 185.434C180.259 185.676 180.184 185.911 180.046 186.11C179.908 186.309 179.715 186.463 179.49 186.552C179.265 186.642 179.018 186.663 178.781 186.612C178.545 186.562 178.328 186.442 178.159 186.269C177.99 186.096 177.876 185.877 177.831 185.639C177.786 185.401 177.813 185.155 177.908 184.932C178.003 184.709 178.161 184.519 178.364 184.387C178.566 184.254 178.803 184.184 179.045 184.185C179.207 184.187 179.367 184.221 179.516 184.284C179.665 184.348 179.8 184.44 179.914 184.556C180.027 184.672 180.116 184.81 180.176 184.96C180.236 185.111 180.266 185.271 180.264 185.434Z" fill="#263238"/>
<path d="M184.038 185.451C184.033 185.691 183.957 185.925 183.819 186.123C183.682 186.321 183.489 186.474 183.265 186.562C183.041 186.651 182.796 186.671 182.56 186.621C182.324 186.57 182.109 186.451 181.941 186.279C181.772 186.107 181.659 185.888 181.614 185.652C181.57 185.415 181.596 185.17 181.69 184.948C181.784 184.727 181.941 184.537 182.142 184.405C182.343 184.272 182.579 184.202 182.82 184.202C182.982 184.204 183.142 184.237 183.291 184.3C183.441 184.364 183.576 184.456 183.689 184.572C183.803 184.688 183.892 184.826 183.952 184.977C184.011 185.127 184.041 185.288 184.038 185.451Z" fill="#263238"/>
<path d="M187.842 185.468C187.837 185.708 187.761 185.942 187.624 186.14C187.486 186.338 187.293 186.491 187.069 186.579C186.845 186.668 186.6 186.688 186.364 186.638C186.129 186.587 185.913 186.468 185.745 186.296C185.577 186.124 185.463 185.905 185.418 185.669C185.374 185.432 185.4 185.187 185.494 184.965C185.588 184.744 185.745 184.554 185.946 184.422C186.147 184.289 186.383 184.219 186.624 184.219C186.786 184.221 186.946 184.255 187.095 184.318C187.244 184.382 187.379 184.475 187.492 184.59C187.605 184.706 187.695 184.844 187.755 184.994C187.815 185.145 187.844 185.306 187.842 185.468Z" fill="#263238"/>
<path d="M217.53 68.6499H149.4V110.313H217.53V68.6499Z" fill="#E0E0E0"/>
<path d="M155.692 110.325L175.211 84.1946L187.318 100.536L195.519 91.7945L211.609 110.308L155.692 110.325Z" fill="#F5F5F5"/>
<path d="M192.447 80.9868C192.448 81.8582 192.19 82.7102 191.707 83.4352C191.223 84.1601 190.536 84.7254 189.731 85.0594C188.926 85.3934 188.04 85.4813 187.186 85.3118C186.331 85.1423 185.546 84.7231 184.929 84.1073C184.313 83.4914 183.893 82.7066 183.723 81.852C183.552 80.9974 183.639 80.1115 183.972 79.3064C184.306 78.5013 184.87 77.8131 185.595 77.3289C186.319 76.8447 187.171 76.5862 188.042 76.5862C189.21 76.5862 190.33 77.0497 191.156 77.8749C191.982 78.7 192.446 79.8193 192.447 80.9868Z" fill="#F5F5F5"/>
<path d="M217.347 149.036C217.347 148.146 217.304 110.509 217.245 54.7879L217.347 54.8901H149.225L149.336 54.7793C149.336 90.0266 149.336 122.645 149.336 149.028L149.242 148.938L217.373 149.028L149.242 149.121H149.153V149.028C149.153 122.645 149.153 90.0266 149.132 54.7793V54.6686H149.251H217.373H217.475V54.7666C217.453 82.6568 217.436 106.227 217.424 122.833C217.424 131.123 217.402 137.67 217.398 142.152C217.398 144.384 217.398 146.101 217.398 147.264C217.398 147.839 217.398 148.278 217.398 148.576C217.398 148.874 217.347 149.036 217.347 149.036Z" fill="#263238"/>
<path d="M185.316 160.73L186.824 155.665C187.088 154.566 187.438 153.27 187.906 151.792C188.332 150.463 189.414 149.066 190.402 148.061C191.94 146.497 192.673 146.489 193.704 145.658C193.798 145.598 193.904 145.509 193.994 145.462C194.189 145.356 194.36 145.211 194.496 145.036C195.387 144.073 194.53 142.578 192.72 142.723C191.361 142.829 189.137 143.217 185.525 146.944C185.478 147.004 185.431 147.051 185.388 147.106C183.493 149.573 181.712 142.535 181.388 139.915C181.326 139.509 181.172 139.123 180.94 138.784C180.707 138.445 180.401 138.163 180.045 137.959C179.689 137.754 179.291 137.632 178.881 137.602C178.471 137.572 178.06 137.635 177.678 137.785L168.877 141.901C168.037 141.657 167.142 141.687 166.321 141.986C165.705 142.202 165.192 142.64 164.881 143.214C164.571 143.788 164.486 144.458 164.642 145.091L168.216 159.324L157.733 194.213H180.332L185.316 160.73Z" fill="#FFBE9D"/>
<path d="M202.697 128.686L195.71 142.378L192.217 141.406L174.666 155.69C173.95 156.276 173.033 156.56 172.111 156.48C171.189 156.401 170.334 155.964 169.729 155.264L163.041 147.498C163.041 147.498 176.523 141.692 179.016 136.887C181.508 132.081 178.628 130.986 178.628 130.986L184.971 123.779L202.697 128.686Z" fill="#407BFF"/>
<path d="M193.636 100.723C193.636 100.723 183.412 98.4614 169.017 84.6249C154.623 70.7884 147.866 52.398 146.124 52.5002C144.382 52.6025 136.671 49.0198 122.042 80.8377C107.413 112.656 113.177 120.03 116.078 119.987C118.979 119.945 138.75 114.419 151.095 115.821C163.441 117.222 179.309 123.659 179.309 123.659L193.636 100.723Z" fill="#407BFF"/>
<path d="M215.358 118.066L211.869 124.699L210.305 127.681C209.273 129.644 207.527 131.136 205.428 131.849C203.328 132.562 201.035 132.443 199.02 131.515L177.103 123.877L189.883 94.7381L211.779 106.406C213.794 107.484 215.3 109.315 215.971 111.499C216.641 113.683 216.421 116.044 215.358 118.066Z" fill="#407BFF"/>
<g opacity="0.4">
<path d="M215.358 118.066L211.869 124.699L210.305 127.681C209.273 129.644 207.527 131.136 205.428 131.849C203.328 132.562 201.035 132.443 199.02 131.515L177.103 123.877L189.883 94.7381L211.779 106.406C213.794 107.484 215.3 109.315 215.971 111.499C216.641 113.683 216.421 116.044 215.358 118.066Z" fill="black"/>
</g>
<path d="M123.209 81.4171C115.426 98.6531 112.185 114.015 115.967 115.723C119.75 117.431 129.135 104.847 136.918 87.6069C144.701 70.3667 147.943 55.0136 144.16 53.3011C140.377 51.5886 130.992 64.1811 123.209 81.4171Z" fill="#407BFF"/>
<g opacity="0.5">
<path d="M123.209 81.4171C115.426 98.6531 112.185 114.015 115.967 115.723C119.75 117.431 129.135 104.847 136.918 87.6069C144.701 70.3667 147.943 55.0136 144.16 53.3011C140.377 51.5886 130.992 64.1811 123.209 81.4171Z" fill="black"/>
</g>
<path d="M217.24 127.651L211.298 125.785L214.974 118.799L219.43 121.568L217.24 127.651Z" fill="#407BFF"/>
<g opacity="0.6">
<path d="M214.974 118.799L211.298 125.785L212.52 126.168L215.507 119.127L214.974 118.799Z" fill="black"/>
</g>
<path d="M210.876 120.409C210.791 120.601 207.826 119.45 204.256 117.853C200.686 116.255 197.866 114.773 197.947 114.581C198.028 114.39 200.997 115.544 204.571 117.159C208.145 118.773 210.965 120.217 210.876 120.409Z" fill="#407BFF"/>
<path d="M212.708 116.247C212.614 116.434 209.93 115.305 206.714 113.721C203.498 112.136 200.967 110.7 201.061 110.509C201.155 110.317 203.834 111.45 207.051 113.035C210.267 114.62 212.802 116.055 212.708 116.247Z" fill="#407BFF"/>
<path d="M208.576 124.775C208.546 124.878 207.839 124.716 206.714 124.349C206.152 124.175 205.483 123.953 204.746 123.702C204.009 123.451 203.255 123.05 202.441 122.679C199.191 121.171 196.707 119.697 196.788 119.519C196.869 119.34 199.54 120.494 202.752 121.989C203.562 122.356 204.311 122.756 205.019 123.05C205.726 123.344 206.36 123.604 206.893 123.842C207.958 124.332 208.605 124.673 208.576 124.775Z" fill="#407BFF"/>
<path d="M139.078 77.5873C139.078 77.5873 130.192 72.0749 125.331 84.0838C120.47 96.0928 129.817 98.0652 129.817 98.0652C133.853 91.7095 136.971 84.8154 139.078 77.5873Z" fill="#407BFF"/>
<g opacity="0.5">
<path d="M148.531 63.2737C148.586 63.2737 148.459 64.1002 148.186 65.5699C147.913 67.0396 147.504 69.1653 146.933 71.781L145.698 75.9856C145.474 76.7382 145.242 77.5178 145.004 78.3243L144.642 79.5469C144.509 79.9729 144.335 80.3606 144.181 80.7738L142.175 85.954C142 86.4055 141.821 86.8571 141.647 87.3129C141.472 87.7687 141.221 88.2033 141.021 88.6548L139.7 91.3812L138.375 94.1034C138.149 94.5294 137.949 95.0065 137.706 95.424C137.463 95.8414 137.208 96.276 136.965 96.6807L134.132 101.465C133.902 101.84 133.706 102.227 133.451 102.585L132.714 103.629L131.299 105.622L128.743 109.188C127.039 111.246 125.616 112.869 124.637 113.998C124.155 114.609 123.624 115.179 123.048 115.702C123.448 115.037 123.904 114.407 124.411 113.819C125.357 112.613 126.69 110.926 128.326 108.851L130.775 105.26L132.147 103.262C132.386 102.922 132.624 102.572 132.867 102.219C133.11 101.865 133.293 101.477 133.527 101.098L136.326 96.3186L137.054 95.0661C137.306 94.6401 137.48 94.2141 137.715 93.754L139.027 91.0489C139.453 90.133 139.909 89.2342 140.343 88.3438C140.548 87.9178 140.795 87.4663 140.965 87.0147L141.498 85.6686L143.534 80.5566C143.692 80.1306 143.87 79.7514 144.007 79.3425C144.143 78.9335 144.258 78.5331 144.382 78.1326L145.106 75.8194L146.414 71.6659L147.892 65.5315C148.04 64.7621 148.254 64.0068 148.531 63.2737Z" fill="black"/>
</g>
<g opacity="0.4">
<path d="M165.162 146.544C165.976 148.018 166.802 149.526 167.999 150.689C169.196 151.852 170.832 152.678 172.536 152.508C174.24 152.338 175.795 150.949 175.812 149.27C176.613 149.871 177.844 149.547 178.509 148.793C179.173 148.039 179.39 146.996 179.467 145.994C180.558 146.638 182.074 146.131 182.803 145.096C183.137 144.556 183.349 143.95 183.422 143.32C183.496 142.69 183.43 142.051 183.229 141.449C182.814 140.251 182.224 139.121 181.478 138.096C182.33 138.165 183.207 138.224 183.957 137.845C184.707 137.466 185.235 136.469 184.779 135.753C184.48 135.354 184.045 135.077 183.557 134.974C182.24 134.548 181.32 134.233 179.948 134.39C179.633 134.39 180.498 138.003 171.906 142.936C166.806 145.854 165.162 146.544 165.162 146.544Z" fill="black"/>
</g>
<path d="M184.511 151.741C184.511 151.78 183.936 151.669 183.007 151.694C181.8 151.723 180.613 152.008 179.525 152.53C178.436 153.052 177.471 153.8 176.694 154.723C176.093 155.43 175.842 155.946 175.786 155.924C175.822 155.792 175.878 155.665 175.953 155.55C176.135 155.225 176.341 154.915 176.57 154.621C177.336 153.649 178.314 152.866 179.43 152.331C180.546 151.796 181.77 151.525 183.007 151.537C183.379 151.539 183.749 151.573 184.115 151.639C184.252 151.649 184.386 151.684 184.511 151.741Z" fill="#EB996E"/>
<path d="M165.72 144.239C167.105 145.568 168.05 147.038 169.503 148.376C170.163 148.985 171.207 150.135 172.059 150.289C172.911 150.442 173.507 150.327 173.857 149.5C174.142 148.832 173.631 147.916 173.282 147.37C172.357 145.918 171.471 144.785 170.781 143.656C170.453 143.127 170.875 143.017 171.028 143.264C171.693 143.954 172.689 144.542 173.286 145.304C174.104 146.331 174.249 147.698 176.387 147.264C176.673 147.218 176.944 147.105 177.179 146.936C177.985 146.318 178.031 145.232 177.682 144.38C177.381 143.722 176.978 143.116 176.489 142.582C177.401 143.609 178.394 144.712 179.842 144.806C180.251 144.856 180.666 144.777 181.028 144.581C181.391 144.385 181.683 144.081 181.865 143.711C182.291 142.74 181.682 141.798 181.065 141.04C179.971 139.692 178.755 138.448 177.431 137.325C176.936 136.91 176.313 136.68 175.667 136.674C174.917 136.674 173.963 136.81 173.537 137.457C173.294 137.77 173.117 138.128 173.016 138.511C172.916 138.894 172.895 139.294 172.954 139.685C172.954 139.685 171.079 138.735 169.571 139.728C168.643 140.38 167.976 141.34 167.688 142.437L165.72 144.239Z" fill="#FFBE9D"/>
<path d="M175.71 136.265C175.41 135.916 175.224 135.485 175.177 135.028C175.129 134.571 175.223 134.111 175.446 133.709C175.765 133.082 176.166 132.473 176.574 132.337C178.359 131.736 186.164 133.087 186.091 134.816C186.019 136.546 185.448 137.372 181.218 136.763C180.472 136.657 179.305 136.512 179.305 136.512L178.283 138.045L175.71 136.265Z" fill="#FFBE9D"/>
<path d="M177.107 143.515C176.083 141.826 174.589 140.472 172.809 139.617C173.099 139.664 173.379 139.762 173.635 139.907C174.917 140.527 175.994 141.503 176.736 142.718C176.908 142.959 177.034 143.229 177.107 143.515Z" fill="#EB996E"/>
<path d="M178.419 138.194C178.381 138.228 177.865 137.811 177.162 137.381C176.868 137.195 176.564 137.025 176.251 136.874C176.008 136.763 175.846 136.733 175.85 136.699C175.855 136.665 176.033 136.648 176.302 136.729C176.647 136.84 176.977 136.996 177.282 137.193C178.002 137.632 178.474 138.148 178.419 138.194Z" fill="#EB996E"/>
<path d="M179.731 136.584C179.224 136.643 178.709 136.585 178.227 136.414C177.875 136.306 177.548 136.129 177.265 135.894C177.052 135.711 176.962 135.562 176.984 135.54C177.393 135.805 177.832 136.023 178.291 136.188C178.78 136.288 179.261 136.42 179.731 136.584Z" fill="#EB996E"/>
<path d="M172.148 145.658C171.879 145.376 171.641 145.066 171.437 144.733C170.951 143.947 170.336 143.247 169.618 142.663C168.874 142.119 167.952 141.875 167.036 141.982C166.661 142.049 166.296 142.165 165.95 142.327C165.95 142.327 166.027 142.237 166.201 142.131C166.45 141.98 166.725 141.876 167.011 141.824C167.488 141.747 167.975 141.766 168.445 141.879C168.914 141.992 169.357 142.198 169.746 142.484C170.487 143.08 171.106 143.813 171.569 144.644C171.79 144.965 171.984 145.304 172.148 145.658Z" fill="#EB996E"/>
<path d="M178.117 162.911C177.066 163.134 176.001 163.287 174.93 163.367C173.865 163.521 172.79 163.601 171.714 163.605C172.766 163.382 173.832 163.23 174.905 163.149C175.969 162.998 177.042 162.918 178.117 162.911Z" fill="#EB996E"/>
<path d="M245.224 21.2318L245.706 22.1136L246.583 22.595L245.706 23.0764L245.224 23.954L244.743 23.0764L243.865 22.595L244.743 22.1136L245.224 21.2318Z" fill="#407BFF"/>
<path d="M255.282 43.0302L255.764 43.912L256.641 44.3934L255.764 44.8748L255.282 45.7524L254.801 44.8748L253.919 44.3934L254.801 43.912L255.282 43.0302Z" fill="#407BFF"/>
<path d="M94.1094 101.188L94.5908 102.07L95.4726 102.551L94.5908 103.028L94.1094 103.91L93.628 103.028L92.7505 102.551L93.628 102.07L94.1094 101.188Z" fill="#407BFF"/>
<path d="M232.031 26.6505L233.143 28.6825L235.175 29.7944L233.143 30.902L232.031 32.934L230.924 30.902L228.892 29.7944L230.924 28.6825L232.031 26.6505Z" fill="#407BFF"/>
<path d="M103.124 87.3726L104.231 89.3961L106.259 90.5037L104.231 91.6155L103.124 93.639L102.016 91.6155L99.9883 90.5037L102.016 89.3961L103.124 87.3726Z" fill="#407BFF"/>
<path d="M258.017 135.707L259.125 137.734L261.148 138.842L259.125 139.949L258.017 141.977L256.91 139.949L254.882 138.842L256.91 137.734L258.017 135.707Z" fill="#407BFF"/>
</svg>
