<svg width="17" height="11" viewBox="0 0 17 11" fill="none" xmlns="http://www.w3.org/2000/svg">
<mask id="mask0_60_478" style="mask-type:alpha" maskUnits="userSpaceOnUse" x="0" y="0" width="17" height="11">
<path fill-rule="evenodd" clip-rule="evenodd" d="M1 6.93156H2C2.55231 6.93156 3 7.37473 3 7.92141V9.9011C3 10.4478 2.55231 10.8909 2 10.8909H1C0.44772 10.8909 0 10.4478 0 9.9011V7.92141C0 7.37473 0.44772 6.93156 1 6.93156ZM5.66662 4.95186H6.66662C7.2189 4.95186 7.66662 5.39504 7.66662 5.94171V9.9011C7.66662 10.4478 7.2189 10.8909 6.66662 10.8909H5.66662C5.11431 10.8909 4.66662 10.4478 4.66662 9.9011V5.94171C4.66662 5.39504 5.11431 4.95186 5.66662 4.95186ZM10.3333 2.64222H11.3333C11.8856 2.64222 12.3333 3.0854 12.3333 3.63207V9.9011C12.3333 10.4478 11.8856 10.891 11.3333 10.891H10.3333C9.781 10.891 9.33331 10.4478 9.33331 9.9011V3.63207C9.33331 3.0854 9.781 2.64222 10.3333 2.64222ZM15 0.332581H16C16.5523 0.332581 17 0.775745 17 1.32243V9.9011C17 10.4478 16.5523 10.891 16 10.891H15C14.4477 10.891 14 10.4478 14 9.9011V1.32243C14 0.775745 14.4477 0.332581 15 0.332581Z" fill="white"/>
</mask>
<g mask="url(#mask0_60_478)">
<path d="M-5 -4.61667H22V15.8402H-5V-4.61667Z" fill="#00334D"/>
</g>
</svg>
