<svg width="90" height="19" viewBox="0 0 90 19" fill="none" xmlns="http://www.w3.org/2000/svg">
<path d="M9.42822 18.24C8.11622 18.24 6.90822 18.032 5.80422 17.616C4.71622 17.184 3.76422 16.584 2.94822 15.816C2.13222 15.032 1.50022 14.112 1.05222 13.056C0.604219 12 0.380219 10.848 0.380219 9.6C0.380219 8.352 0.604219 7.2 1.05222 6.144C1.50022 5.088 2.13222 4.176 2.94822 3.408C3.78022 2.624 4.74822 2.024 5.85222 1.608C6.95622 1.176 8.16422 0.959999 9.47622 0.959999C10.9002 0.959999 12.1802 1.192 13.3162 1.656C14.4682 2.12 15.4362 2.8 16.2202 3.696L14.2522 5.616C13.5962 4.96 12.8842 4.48 12.1162 4.176C11.3642 3.856 10.5322 3.696 9.62022 3.696C8.74022 3.696 7.92422 3.84 7.17222 4.128C6.42022 4.416 5.77222 4.824 5.22822 5.352C4.68422 5.88 4.26022 6.504 3.95622 7.224C3.66822 7.944 3.52422 8.736 3.52422 9.6C3.52422 10.448 3.66822 11.232 3.95622 11.952C4.26022 12.672 4.68422 13.304 5.22822 13.848C5.77222 14.376 6.41222 14.784 7.14822 15.072C7.88422 15.36 8.70022 15.504 9.59622 15.504C10.4282 15.504 11.2282 15.376 11.9962 15.12C12.7802 14.848 13.5242 14.4 14.2282 13.776L16.0042 16.104C15.1242 16.808 14.1002 17.344 12.9322 17.712C11.7802 18.064 10.6122 18.24 9.42822 18.24ZM13.0522 15.696V9.408H16.0042V16.104L13.0522 15.696ZM25.8553 18.168C24.4313 18.168 23.1833 17.888 22.1113 17.328C21.0553 16.752 20.2313 15.968 19.6393 14.976C19.0633 13.984 18.7753 12.856 18.7753 11.592C18.7753 10.312 19.0553 9.184 19.6153 8.208C20.1913 7.216 20.9753 6.44 21.9673 5.88C22.9753 5.32 24.1193 5.04 25.3993 5.04C26.6473 5.04 27.7593 5.312 28.7353 5.856C29.7113 6.4 30.4793 7.168 31.0393 8.16C31.5993 9.152 31.8793 10.32 31.8793 11.664C31.8793 11.792 31.8713 11.936 31.8553 12.096C31.8553 12.256 31.8473 12.408 31.8313 12.552H21.1513V10.56H30.2473L29.0713 11.184C29.0873 10.448 28.9353 9.8 28.6153 9.24C28.2953 8.68 27.8553 8.24 27.2953 7.92C26.7513 7.6 26.1193 7.44 25.3993 7.44C24.6633 7.44 24.0153 7.6 23.4553 7.92C22.9113 8.24 22.4793 8.688 22.1593 9.264C21.8553 9.824 21.7033 10.488 21.7033 11.256V11.736C21.7033 12.504 21.8793 13.184 22.2313 13.776C22.5833 14.368 23.0793 14.824 23.7193 15.144C24.3593 15.464 25.0953 15.624 25.9273 15.624C26.6473 15.624 27.2953 15.512 27.8713 15.288C28.4473 15.064 28.9593 14.712 29.4073 14.232L31.0153 16.08C30.4393 16.752 29.7113 17.272 28.8313 17.64C27.9673 17.992 26.9753 18.168 25.8553 18.168ZM39.585 18.168C38.177 18.168 37.089 17.808 36.321 17.088C35.553 16.352 35.169 15.272 35.169 13.848V2.352H38.169V13.776C38.169 14.384 38.321 14.856 38.625 15.192C38.945 15.528 39.385 15.696 39.945 15.696C40.617 15.696 41.177 15.52 41.625 15.168L42.465 17.304C42.113 17.592 41.681 17.808 41.169 17.952C40.657 18.096 40.129 18.168 39.585 18.168ZM33.057 7.68V5.28H41.601V7.68H33.057Z" fill="#007DC9"/>
<path d="M53.0928 18.24C51.7808 18.24 50.5728 18.024 49.4688 17.592C48.3648 17.16 47.4048 16.56 46.5888 15.792C45.7728 15.008 45.1408 14.096 44.6928 13.056C44.2448 12 44.0208 10.848 44.0208 9.6C44.0208 8.352 44.2448 7.208 44.6928 6.168C45.1408 5.112 45.7728 4.2 46.5888 3.432C47.4048 2.648 48.3648 2.04 49.4688 1.608C50.5728 1.176 51.7728 0.959999 53.0688 0.959999C54.3808 0.959999 55.5808 1.176 56.6688 1.608C57.7728 2.04 58.7328 2.648 59.5488 3.432C60.3648 4.2 60.9968 5.112 61.4448 6.168C61.8928 7.208 62.1168 8.352 62.1168 9.6C62.1168 10.848 61.8928 12 61.4448 13.056C60.9968 14.112 60.3648 15.024 59.5488 15.792C58.7328 16.56 57.7728 17.16 56.6688 17.592C55.5808 18.024 54.3888 18.24 53.0928 18.24ZM53.0688 15.504C53.9168 15.504 54.7008 15.36 55.4208 15.072C56.1408 14.784 56.7648 14.376 57.2928 13.848C57.8208 13.304 58.2288 12.68 58.5168 11.976C58.8208 11.256 58.9728 10.464 58.9728 9.6C58.9728 8.736 58.8208 7.952 58.5168 7.248C58.2288 6.528 57.8208 5.904 57.2928 5.376C56.7648 4.832 56.1408 4.416 55.4208 4.128C54.7008 3.84 53.9168 3.696 53.0688 3.696C52.2208 3.696 51.4368 3.84 50.7168 4.128C50.0128 4.416 49.3888 4.832 48.8448 5.376C48.3168 5.904 47.9008 6.528 47.5968 7.248C47.3088 7.952 47.1648 8.736 47.1648 9.6C47.1648 10.448 47.3088 11.232 47.5968 11.952C47.9008 12.672 48.3168 13.304 48.8448 13.848C49.3728 14.376 49.9968 14.784 50.7168 15.072C51.4368 15.36 52.2208 15.504 53.0688 15.504ZM70.56 18.168C69.472 18.168 68.512 17.968 67.68 17.568C66.848 17.152 66.2 16.528 65.736 15.696C65.272 14.848 65.04 13.784 65.04 12.504V5.184H68.04V12.096C68.04 13.248 68.296 14.112 68.808 14.688C69.336 15.248 70.08 15.528 71.04 15.528C71.744 15.528 72.352 15.384 72.864 15.096C73.392 14.808 73.8 14.376 74.088 13.8C74.392 13.224 74.544 12.512 74.544 11.664V5.184H77.544V18H74.688V14.544L75.192 15.6C74.76 16.432 74.128 17.072 73.296 17.52C72.464 17.952 71.552 18.168 70.56 18.168ZM86.2959 18.168C84.8879 18.168 83.7999 17.808 83.0319 17.088C82.2639 16.352 81.8799 15.272 81.8799 13.848V2.352H84.8799V13.776C84.8799 14.384 85.0319 14.856 85.3359 15.192C85.6559 15.528 86.0959 15.696 86.6559 15.696C87.3279 15.696 87.8879 15.52 88.3359 15.168L89.1759 17.304C88.8239 17.592 88.3919 17.808 87.8799 17.952C87.3679 18.096 86.8399 18.168 86.2959 18.168ZM79.7679 7.68V5.28H88.3119V7.68H79.7679Z" fill="#63BEEE"/>
</svg>
