<svg width="357" height="64" viewBox="0 0 357 64" fill="none" xmlns="http://www.w3.org/2000/svg">
<rect width="357" height="64" rx="2" fill="#F7F7F7"/>
<path d="M48.2595 32.7952C49.0226 32.1662 53.4295 29.4402 55.8426 27.144C57.7264 25.3496 58.4551 20.6643 55.5573 18.3852C51.7898 15.4255 48.1736 18.533 48.1736 18.533C48.1736 18.533 47.8573 16.7765 45.6573 15.7452C42.8867 14.4458 39.377 13.9612 36.1492 14.0024C33.0211 14.0402 30.1404 14.4183 27.5829 15.673C25.2936 16.7971 25.1561 18.399 25.1561 18.399C25.1561 18.399 22.1517 15.5287 18.4701 17.8593C14.792 20.1933 15.8473 24.8683 17.6176 26.8312C19.9242 29.3887 22.6948 30.6915 23.9529 31.6333C25.2076 32.5752 26.4107 33.4724 26.4107 34.2802C26.4107 35.088 26.0532 35.2668 25.9157 35.2221C25.7817 35.1774 25.5445 34.3902 24.9292 34.7271C24.0904 35.1912 24.3448 37.0612 26.0945 37.2399C27.7892 37.4152 28.1123 35.6243 28.1123 35.6243L28.3804 33.8746L31.1614 35.803L34.2104 38.3158L34.1211 40.4677C34.1211 40.4677 33.987 42.128 33.1792 43.5649C32.3714 45.0018 31.072 46.4352 31.072 46.4352L31.0307 47.7346L42.3367 47.4665L41.9792 46.2118C41.9792 46.2118 40.5217 44.6099 39.6451 42.8912C39.0195 41.6605 38.9198 40.4196 38.9198 40.4196L38.8923 37.3327L44.7601 33.7371C44.7601 33.7371 45.3892 34.2321 45.2998 34.4108C45.2104 34.5896 45.1898 36.4218 46.5992 37.1024C47.9914 37.7762 49.112 36.9237 48.9779 35.7549C48.8439 34.5896 48.1254 34.9918 47.902 35.1705C47.6786 35.3493 47.1836 35.394 47.0495 34.7202C46.912 34.0533 47.4964 33.4243 48.2595 32.7952V32.7952ZM19.3742 26.4496L18.0301 22.359L19.6561 20.2312L21.4779 19.6983C21.4779 19.6983 23.8051 21.4343 23.8876 21.5752C23.9701 21.7162 25.3726 24.6002 25.3726 24.6002L27.222 31.2965L19.3742 26.4496V26.4496ZM45.7948 31.8293C45.8223 31.6883 47.5307 24.6552 47.5307 24.6552C47.5307 24.5727 48.7339 24.0124 48.7339 23.899C48.7339 23.7855 50.9201 20.2277 50.9201 20.2277L54.5639 20.3687L55.3201 23.9815L53.4982 26.979C53.5017 26.9824 45.7673 31.9668 45.7948 31.8293Z" fill="#FEC417"/>
<path d="M34.2173 38.3158C34.2173 38.3158 34.8258 37.7211 36.4998 37.7211C38.1739 37.7211 38.8923 38.3639 38.8923 38.3639L38.937 40.4299C38.937 40.4299 37.8233 40.0827 36.4689 40.0655C35.3414 40.0518 34.128 40.4711 34.128 40.4711L34.2173 38.3158V38.3158ZM26.9058 17.7974C27.1877 17.5361 29.8895 15.508 36.2867 15.453C43.1686 15.3911 45.7502 17.3849 45.9117 17.4949C46.0939 17.6152 46.307 18.1652 46.2177 18.4093C46.1248 18.6533 45.9427 18.7427 45.427 18.5296C44.908 18.3164 42.3505 16.4499 36.1973 16.6424C30.2883 16.8246 27.7823 18.6224 27.5177 18.7736C27.3045 18.8939 26.9092 18.9249 26.727 18.6808C26.5414 18.4402 26.7236 17.9693 26.9058 17.7974V17.7974ZM46.2177 19.2308C45.427 19.2927 45.9736 25.6589 44.2995 29.6464C42.5052 33.9124 40.2158 35.1293 40.3086 35.3733C40.4014 35.6174 42.6427 34.9402 44.0555 32.9361C45.3652 31.0799 46.1558 29.4333 46.5236 27.2402C46.8845 25.0471 47.0977 19.1621 46.2177 19.2308V19.2308ZM26.7373 19.9596C26.538 19.9493 26.7408 23.1255 26.4177 24.5211C26.2939 25.0574 25.9914 25.1674 25.9605 25.2877C25.9295 25.408 26.6239 29.4952 27.7892 31.2896C28.9167 33.0255 31.1408 35.1877 31.5052 34.8233C31.8695 34.4589 29.8895 33.2386 28.5523 30.5883C27.7823 29.0689 26.9986 26.7796 26.9677 24.1602C26.947 22.4277 27.1636 19.9836 26.7373 19.9596V19.9596Z" fill="#D1701C"/>
<path d="M44.7017 51.1377L44.6983 46.2255H28.9304C28.9786 46.2255 28.9408 50.2199 28.9339 51.1549H26.6926V54.7127H46.7161V51.1549L44.7017 51.1377Z" fill="#865C50"/>
<path d="M33.9837 48.8071C33.5953 48.7899 33.1484 48.8689 33.1312 49.3502C33.114 49.8314 33.114 51.2236 33.114 51.4883C33.114 51.753 33.3306 51.9833 33.8737 52.0005C34.4168 52.0177 39.5146 52.0005 39.8721 52.0005C40.2296 52.0005 40.4153 51.6911 40.429 51.3817C40.4462 51.0724 40.4118 49.7696 40.4118 49.4155C40.4118 48.8277 39.8859 48.8277 39.5284 48.8277C39.1434 48.8208 33.9837 48.8071 33.9837 48.8071V48.8071Z" fill="#FCC219"/>
<rect x="74" y="30" width="268" height="4" rx="2" fill="#D9D9D9"/>
<rect x="74" y="30" width="134" height="4" rx="2" fill="#BD9A40"/>
<path d="M82.7 56V55.566C82.7 55.1647 82.7747 54.796 82.924 54.46C83.0827 54.1147 83.288 53.802 83.54 53.522C83.8013 53.242 84.0907 52.976 84.408 52.724C84.7253 52.472 85.0473 52.2293 85.374 51.996C85.8033 51.688 86.2 51.38 86.564 51.072C86.928 50.764 87.222 50.4327 87.446 50.078C87.6793 49.7233 87.796 49.3267 87.796 48.888C87.796 48.636 87.7353 48.4027 87.614 48.188C87.502 47.9733 87.3247 47.8007 87.082 47.67C86.8393 47.53 86.522 47.46 86.13 47.46C85.7007 47.46 85.3507 47.5347 85.08 47.684C84.8187 47.824 84.6227 48.02 84.492 48.272C84.3707 48.5147 84.31 48.7993 84.31 49.126V49.7H82.854C82.8447 49.6533 82.8353 49.5833 82.826 49.49C82.8167 49.3967 82.812 49.28 82.812 49.14C82.812 48.4493 82.966 47.894 83.274 47.474C83.5913 47.0447 84.0067 46.732 84.52 46.536C85.0427 46.3307 85.6027 46.228 86.2 46.228C86.7787 46.228 87.264 46.312 87.656 46.48C88.0573 46.6387 88.3747 46.8533 88.608 47.124C88.8507 47.3947 89.0233 47.6933 89.126 48.02C89.238 48.3467 89.294 48.664 89.294 48.972C89.294 49.42 89.2147 49.826 89.056 50.19C88.9067 50.554 88.692 50.8947 88.412 51.212C88.1413 51.5293 87.8193 51.8373 87.446 52.136C87.082 52.4253 86.69 52.7147 86.27 53.004C86.0087 53.1813 85.752 53.3633 85.5 53.55C85.2573 53.7367 85.0427 53.928 84.856 54.124C84.6693 54.3107 84.5433 54.4927 84.478 54.67H89.35V56H82.7ZM94.0448 56.168C93.3728 56.168 92.7801 56.042 92.2668 55.79C91.7628 55.538 91.3708 55.1787 91.0908 54.712C90.8108 54.236 90.6708 53.6713 90.6708 53.018H92.1688C92.1688 53.4193 92.2481 53.7693 92.4068 54.068C92.5654 54.3573 92.7848 54.5813 93.0648 54.74C93.3541 54.8893 93.6808 54.964 94.0448 54.964C94.3994 54.964 94.7121 54.8893 94.9828 54.74C95.2628 54.5813 95.4774 54.348 95.6268 54.04C95.7854 53.7227 95.8648 53.3307 95.8648 52.864C95.8648 52.4347 95.7901 52.08 95.6408 51.8C95.5008 51.5107 95.2954 51.3007 95.0248 51.17C94.7634 51.03 94.4601 50.96 94.1148 50.96C93.8628 50.96 93.6248 51.002 93.4008 51.086C93.1768 51.1607 92.9808 51.268 92.8128 51.408C92.6448 51.548 92.5001 51.716 92.3788 51.912L91.0068 51.716L91.3988 46.396H96.8728V47.74H92.6728L92.4768 50.428C92.6261 50.316 92.7894 50.2087 92.9668 50.106C93.1534 50.0033 93.3681 49.9193 93.6108 49.854C93.8628 49.7887 94.1474 49.756 94.4648 49.756C95.0061 49.756 95.4961 49.868 95.9348 50.092C96.3734 50.316 96.7234 50.6567 96.9848 51.114C97.2461 51.562 97.3768 52.1407 97.3768 52.85C97.3768 53.55 97.2414 54.1473 96.9708 54.642C96.7001 55.1367 96.3174 55.5147 95.8228 55.776C95.3281 56.0373 94.7354 56.168 94.0448 56.168Z" fill="black"/>
<path d="M140.046 56.168C139.374 56.168 138.781 56.042 138.268 55.79C137.764 55.538 137.372 55.1787 137.092 54.712C136.812 54.236 136.672 53.6713 136.672 53.018H138.17C138.17 53.4193 138.249 53.7693 138.408 54.068C138.567 54.3573 138.786 54.5813 139.066 54.74C139.355 54.8893 139.682 54.964 140.046 54.964C140.401 54.964 140.713 54.8893 140.984 54.74C141.264 54.5813 141.479 54.348 141.628 54.04C141.787 53.7227 141.866 53.3307 141.866 52.864C141.866 52.4347 141.791 52.08 141.642 51.8C141.502 51.5107 141.297 51.3007 141.026 51.17C140.765 51.03 140.461 50.96 140.116 50.96C139.864 50.96 139.626 51.002 139.402 51.086C139.178 51.1607 138.982 51.268 138.814 51.408C138.646 51.548 138.501 51.716 138.38 51.912L137.008 51.716L137.4 46.396H142.874V47.74H138.674L138.478 50.428C138.627 50.316 138.791 50.2087 138.968 50.106C139.155 50.0033 139.369 49.9193 139.612 49.854C139.864 49.7887 140.149 49.756 140.466 49.756C141.007 49.756 141.497 49.868 141.936 50.092C142.375 50.316 142.725 50.6567 142.986 51.114C143.247 51.562 143.378 52.1407 143.378 52.85C143.378 53.55 143.243 54.1473 142.972 54.642C142.701 55.1367 142.319 55.5147 141.824 55.776C141.329 56.0373 140.737 56.168 140.046 56.168ZM148.044 56.168C147.531 56.168 147.064 56.0933 146.644 55.944C146.233 55.7853 145.883 55.5193 145.594 55.146C145.314 54.7727 145.095 54.2687 144.936 53.634C144.787 52.99 144.712 52.178 144.712 51.198C144.712 50.218 144.787 49.4107 144.936 48.776C145.095 48.132 145.314 47.6233 145.594 47.25C145.883 46.8767 146.233 46.6153 146.644 46.466C147.064 46.3073 147.531 46.228 148.044 46.228C148.567 46.228 149.033 46.3073 149.444 46.466C149.855 46.6153 150.2 46.8767 150.48 47.25C150.769 47.6233 150.989 48.132 151.138 48.776C151.297 49.4107 151.376 50.218 151.376 51.198C151.376 52.178 151.297 52.99 151.138 53.634C150.989 54.2687 150.769 54.7727 150.48 55.146C150.2 55.5193 149.855 55.7853 149.444 55.944C149.033 56.0933 148.567 56.168 148.044 56.168ZM148.044 54.964C148.539 54.964 148.912 54.838 149.164 54.586C149.425 54.3247 149.607 53.942 149.71 53.438C149.813 52.934 149.864 52.3087 149.864 51.562V50.876C149.864 50.1107 149.813 49.476 149.71 48.972C149.607 48.4587 149.425 48.076 149.164 47.824C148.912 47.5627 148.539 47.432 148.044 47.432C147.559 47.432 147.185 47.5627 146.924 47.824C146.663 48.076 146.481 48.454 146.378 48.958C146.275 49.462 146.224 50.092 146.224 50.848V51.534C146.224 52.2807 146.275 52.9107 146.378 53.424C146.481 53.9373 146.663 54.3247 146.924 54.586C147.185 54.838 147.559 54.964 148.044 54.964Z" fill="black"/>
<path d="M191.134 56V54.782H193.514V48.412H191.134V47.502C191.442 47.4833 191.783 47.4273 192.156 47.334C192.529 47.2407 192.903 47.1147 193.276 46.956C193.649 46.7973 193.99 46.606 194.298 46.382H194.984V54.782H197.182V56H191.134ZM201.675 56.168C201.162 56.168 200.695 56.0933 200.275 55.944C199.864 55.7853 199.514 55.5193 199.225 55.146C198.945 54.7727 198.726 54.2687 198.567 53.634C198.418 52.99 198.343 52.178 198.343 51.198C198.343 50.218 198.418 49.4107 198.567 48.776C198.726 48.132 198.945 47.6233 199.225 47.25C199.514 46.8767 199.864 46.6153 200.275 46.466C200.695 46.3073 201.162 46.228 201.675 46.228C202.198 46.228 202.664 46.3073 203.075 46.466C203.486 46.6153 203.831 46.8767 204.111 47.25C204.4 47.6233 204.62 48.132 204.769 48.776C204.928 49.4107 205.007 50.218 205.007 51.198C205.007 52.178 204.928 52.99 204.769 53.634C204.62 54.2687 204.4 54.7727 204.111 55.146C203.831 55.5193 203.486 55.7853 203.075 55.944C202.664 56.0933 202.198 56.168 201.675 56.168ZM201.675 54.964C202.17 54.964 202.543 54.838 202.795 54.586C203.056 54.3247 203.238 53.942 203.341 53.438C203.444 52.934 203.495 52.3087 203.495 51.562V50.876C203.495 50.1107 203.444 49.476 203.341 48.972C203.238 48.4587 203.056 48.076 202.795 47.824C202.543 47.5627 202.17 47.432 201.675 47.432C201.19 47.432 200.816 47.5627 200.555 47.824C200.294 48.076 200.112 48.454 200.009 48.958C199.906 49.462 199.855 50.092 199.855 50.848V51.534C199.855 52.2807 199.906 52.9107 200.009 53.424C200.112 53.9373 200.294 54.3247 200.555 54.586C200.816 54.838 201.19 54.964 201.675 54.964ZM209.715 56.168C209.201 56.168 208.735 56.0933 208.315 55.944C207.904 55.7853 207.554 55.5193 207.265 55.146C206.985 54.7727 206.765 54.2687 206.607 53.634C206.457 52.99 206.383 52.178 206.383 51.198C206.383 50.218 206.457 49.4107 206.607 48.776C206.765 48.132 206.985 47.6233 207.265 47.25C207.554 46.8767 207.904 46.6153 208.315 46.466C208.735 46.3073 209.201 46.228 209.715 46.228C210.237 46.228 210.704 46.3073 211.115 46.466C211.525 46.6153 211.871 46.8767 212.151 47.25C212.44 47.6233 212.659 48.132 212.809 48.776C212.967 49.4107 213.047 50.218 213.047 51.198C213.047 52.178 212.967 52.99 212.809 53.634C212.659 54.2687 212.44 54.7727 212.151 55.146C211.871 55.5193 211.525 55.7853 211.115 55.944C210.704 56.0933 210.237 56.168 209.715 56.168ZM209.715 54.964C210.209 54.964 210.583 54.838 210.835 54.586C211.096 54.3247 211.278 53.942 211.381 53.438C211.483 52.934 211.535 52.3087 211.535 51.562V50.876C211.535 50.1107 211.483 49.476 211.381 48.972C211.278 48.4587 211.096 48.076 210.835 47.824C210.583 47.5627 210.209 47.432 209.715 47.432C209.229 47.432 208.856 47.5627 208.595 47.824C208.333 48.076 208.151 48.454 208.049 48.958C207.946 49.462 207.895 50.092 207.895 50.848V51.534C207.895 52.2807 207.946 52.9107 208.049 53.424C208.151 53.9373 208.333 54.3247 208.595 54.586C208.856 54.838 209.229 54.964 209.715 54.964Z" fill="black"/>
<path d="M251.7 56V55.566C251.7 55.1647 251.775 54.796 251.924 54.46C252.083 54.1147 252.288 53.802 252.54 53.522C252.801 53.242 253.091 52.976 253.408 52.724C253.725 52.472 254.047 52.2293 254.374 51.996C254.803 51.688 255.2 51.38 255.564 51.072C255.928 50.764 256.222 50.4327 256.446 50.078C256.679 49.7233 256.796 49.3267 256.796 48.888C256.796 48.636 256.735 48.4027 256.614 48.188C256.502 47.9733 256.325 47.8007 256.082 47.67C255.839 47.53 255.522 47.46 255.13 47.46C254.701 47.46 254.351 47.5347 254.08 47.684C253.819 47.824 253.623 48.02 253.492 48.272C253.371 48.5147 253.31 48.7993 253.31 49.126V49.7H251.854C251.845 49.6533 251.835 49.5833 251.826 49.49C251.817 49.3967 251.812 49.28 251.812 49.14C251.812 48.4493 251.966 47.894 252.274 47.474C252.591 47.0447 253.007 46.732 253.52 46.536C254.043 46.3307 254.603 46.228 255.2 46.228C255.779 46.228 256.264 46.312 256.656 46.48C257.057 46.6387 257.375 46.8533 257.608 47.124C257.851 47.3947 258.023 47.6933 258.126 48.02C258.238 48.3467 258.294 48.664 258.294 48.972C258.294 49.42 258.215 49.826 258.056 50.19C257.907 50.554 257.692 50.8947 257.412 51.212C257.141 51.5293 256.819 51.8373 256.446 52.136C256.082 52.4253 255.69 52.7147 255.27 53.004C255.009 53.1813 254.752 53.3633 254.5 53.55C254.257 53.7367 254.043 53.928 253.856 54.124C253.669 54.3107 253.543 54.4927 253.478 54.67H258.35V56H251.7ZM263.045 56.168C262.373 56.168 261.78 56.042 261.267 55.79C260.763 55.538 260.371 55.1787 260.091 54.712C259.811 54.236 259.671 53.6713 259.671 53.018H261.169C261.169 53.4193 261.248 53.7693 261.407 54.068C261.565 54.3573 261.785 54.5813 262.065 54.74C262.354 54.8893 262.681 54.964 263.045 54.964C263.399 54.964 263.712 54.8893 263.983 54.74C264.263 54.5813 264.477 54.348 264.627 54.04C264.785 53.7227 264.865 53.3307 264.865 52.864C264.865 52.4347 264.79 52.08 264.641 51.8C264.501 51.5107 264.295 51.3007 264.025 51.17C263.763 51.03 263.46 50.96 263.115 50.96C262.863 50.96 262.625 51.002 262.401 51.086C262.177 51.1607 261.981 51.268 261.813 51.408C261.645 51.548 261.5 51.716 261.379 51.912L260.007 51.716L260.399 46.396H265.873V47.74H261.673L261.477 50.428C261.626 50.316 261.789 50.2087 261.967 50.106C262.153 50.0033 262.368 49.9193 262.611 49.854C262.863 49.7887 263.147 49.756 263.465 49.756C264.006 49.756 264.496 49.868 264.935 50.092C265.373 50.316 265.723 50.6567 265.985 51.114C266.246 51.562 266.377 52.1407 266.377 52.85C266.377 53.55 266.241 54.1473 265.971 54.642C265.7 55.1367 265.317 55.5147 264.823 55.776C264.328 56.0373 263.735 56.168 263.045 56.168ZM271.043 56.168C270.53 56.168 270.063 56.0933 269.643 55.944C269.232 55.7853 268.882 55.5193 268.593 55.146C268.313 54.7727 268.094 54.2687 267.935 53.634C267.786 52.99 267.711 52.178 267.711 51.198C267.711 50.218 267.786 49.4107 267.935 48.776C268.094 48.132 268.313 47.6233 268.593 47.25C268.882 46.8767 269.232 46.6153 269.643 46.466C270.063 46.3073 270.53 46.228 271.043 46.228C271.566 46.228 272.032 46.3073 272.443 46.466C272.854 46.6153 273.199 46.8767 273.479 47.25C273.768 47.6233 273.988 48.132 274.137 48.776C274.296 49.4107 274.375 50.218 274.375 51.198C274.375 52.178 274.296 52.99 274.137 53.634C273.988 54.2687 273.768 54.7727 273.479 55.146C273.199 55.5193 272.854 55.7853 272.443 55.944C272.032 56.0933 271.566 56.168 271.043 56.168ZM271.043 54.964C271.538 54.964 271.911 54.838 272.163 54.586C272.424 54.3247 272.606 53.942 272.709 53.438C272.812 52.934 272.863 52.3087 272.863 51.562V50.876C272.863 50.1107 272.812 49.476 272.709 48.972C272.606 48.4587 272.424 48.076 272.163 47.824C271.911 47.5627 271.538 47.432 271.043 47.432C270.558 47.432 270.184 47.5627 269.923 47.824C269.662 48.076 269.48 48.454 269.377 48.958C269.274 49.462 269.223 50.092 269.223 50.848V51.534C269.223 52.2807 269.274 52.9107 269.377 53.424C269.48 53.9373 269.662 54.3247 269.923 54.586C270.184 54.838 270.558 54.964 271.043 54.964Z" fill="#666666"/>
<path d="M317.046 56.168C316.374 56.168 315.781 56.042 315.268 55.79C314.764 55.538 314.372 55.1787 314.092 54.712C313.812 54.236 313.672 53.6713 313.672 53.018H315.17C315.17 53.4193 315.249 53.7693 315.408 54.068C315.567 54.3573 315.786 54.5813 316.066 54.74C316.355 54.8893 316.682 54.964 317.046 54.964C317.401 54.964 317.713 54.8893 317.984 54.74C318.264 54.5813 318.479 54.348 318.628 54.04C318.787 53.7227 318.866 53.3307 318.866 52.864C318.866 52.4347 318.791 52.08 318.642 51.8C318.502 51.5107 318.297 51.3007 318.026 51.17C317.765 51.03 317.461 50.96 317.116 50.96C316.864 50.96 316.626 51.002 316.402 51.086C316.178 51.1607 315.982 51.268 315.814 51.408C315.646 51.548 315.501 51.716 315.38 51.912L314.008 51.716L314.4 46.396H319.874V47.74H315.674L315.478 50.428C315.627 50.316 315.791 50.2087 315.968 50.106C316.155 50.0033 316.369 49.9193 316.612 49.854C316.864 49.7887 317.149 49.756 317.466 49.756C318.007 49.756 318.497 49.868 318.936 50.092C319.375 50.316 319.725 50.6567 319.986 51.114C320.247 51.562 320.378 52.1407 320.378 52.85C320.378 53.55 320.243 54.1473 319.972 54.642C319.701 55.1367 319.319 55.5147 318.824 55.776C318.329 56.0373 317.737 56.168 317.046 56.168ZM325.044 56.168C324.531 56.168 324.064 56.0933 323.644 55.944C323.233 55.7853 322.883 55.5193 322.594 55.146C322.314 54.7727 322.095 54.2687 321.936 53.634C321.787 52.99 321.712 52.178 321.712 51.198C321.712 50.218 321.787 49.4107 321.936 48.776C322.095 48.132 322.314 47.6233 322.594 47.25C322.883 46.8767 323.233 46.6153 323.644 46.466C324.064 46.3073 324.531 46.228 325.044 46.228C325.567 46.228 326.033 46.3073 326.444 46.466C326.855 46.6153 327.2 46.8767 327.48 47.25C327.769 47.6233 327.989 48.132 328.138 48.776C328.297 49.4107 328.376 50.218 328.376 51.198C328.376 52.178 328.297 52.99 328.138 53.634C327.989 54.2687 327.769 54.7727 327.48 55.146C327.2 55.5193 326.855 55.7853 326.444 55.944C326.033 56.0933 325.567 56.168 325.044 56.168ZM325.044 54.964C325.539 54.964 325.912 54.838 326.164 54.586C326.425 54.3247 326.607 53.942 326.71 53.438C326.813 52.934 326.864 52.3087 326.864 51.562V50.876C326.864 50.1107 326.813 49.476 326.71 48.972C326.607 48.4587 326.425 48.076 326.164 47.824C325.912 47.5627 325.539 47.432 325.044 47.432C324.559 47.432 324.185 47.5627 323.924 47.824C323.663 48.076 323.481 48.454 323.378 48.958C323.275 49.462 323.224 50.092 323.224 50.848V51.534C323.224 52.2807 323.275 52.9107 323.378 53.424C323.481 53.9373 323.663 54.3247 323.924 54.586C324.185 54.838 324.559 54.964 325.044 54.964ZM333.084 56.168C332.571 56.168 332.104 56.0933 331.684 55.944C331.273 55.7853 330.923 55.5193 330.634 55.146C330.354 54.7727 330.135 54.2687 329.976 53.634C329.827 52.99 329.752 52.178 329.752 51.198C329.752 50.218 329.827 49.4107 329.976 48.776C330.135 48.132 330.354 47.6233 330.634 47.25C330.923 46.8767 331.273 46.6153 331.684 46.466C332.104 46.3073 332.571 46.228 333.084 46.228C333.607 46.228 334.073 46.3073 334.484 46.466C334.895 46.6153 335.24 46.8767 335.52 47.25C335.809 47.6233 336.029 48.132 336.178 48.776C336.337 49.4107 336.416 50.218 336.416 51.198C336.416 52.178 336.337 52.99 336.178 53.634C336.029 54.2687 335.809 54.7727 335.52 55.146C335.24 55.5193 334.895 55.7853 334.484 55.944C334.073 56.0933 333.607 56.168 333.084 56.168ZM333.084 54.964C333.579 54.964 333.952 54.838 334.204 54.586C334.465 54.3247 334.647 53.942 334.75 53.438C334.853 52.934 334.904 52.3087 334.904 51.562V50.876C334.904 50.1107 334.853 49.476 334.75 48.972C334.647 48.4587 334.465 48.076 334.204 47.824C333.952 47.5627 333.579 47.432 333.084 47.432C332.599 47.432 332.225 47.5627 331.964 47.824C331.703 48.076 331.521 48.454 331.418 48.958C331.315 49.462 331.264 50.092 331.264 50.848V51.534C331.264 52.2807 331.315 52.9107 331.418 53.424C331.521 53.9373 331.703 54.3247 331.964 54.586C332.225 54.838 332.599 54.964 333.084 54.964Z" fill="#666666"/>
<path d="M196.825 40L198.45 32.975L193 28.25L200.2 27.625L203 21L205.8 27.625L213 28.25L207.55 32.975L209.175 40L203 36.275L196.825 40Z" fill="#E8B020"/>
<path d="M258.578 38.9616L259.937 33.0877L260.005 32.7944L259.778 32.5972L255.22 28.646L261.243 28.1231L261.543 28.0971L261.661 27.8196L264 22.2844L266.339 27.8196L266.457 28.0971L266.757 28.1231L272.78 28.646L268.222 32.5972L267.995 32.7944L268.063 33.0877L269.422 38.9616L264.258 35.8469L264 35.6911L263.742 35.8469L258.578 38.9616Z" stroke="#E8B020"/>
<path d="M319.578 38.9616L320.937 33.0877L321.005 32.7944L320.778 32.5972L316.22 28.646L322.243 28.1231L322.543 28.0971L322.661 27.8196L325 22.2844L327.339 27.8196L327.457 28.0971L327.757 28.1231L333.78 28.646L329.222 32.5972L328.995 32.7944L329.063 33.0877L330.422 38.9616L325.258 35.8469L325 35.6911L324.742 35.8469L319.578 38.9616Z" stroke="#E8B020"/>
<path d="M137.825 40L139.45 32.975L134 28.25L141.2 27.625L144 21L146.8 27.625L154 28.25L148.55 32.975L150.175 40L144 36.275L137.825 40Z" fill="#E8B020"/>
<path d="M84.825 40L86.45 32.975L81 28.25L88.2 27.625L91 21L93.8 27.625L101 28.25L95.55 32.975L97.175 40L91 36.275L84.825 40Z" fill="#E8B020"/>
<path d="M203 3C200.9 3 199 4.61 199 7.1C199 8.69 200.225 10.56 202.67 12.715C202.86 12.88 203.145 12.88 203.335 12.715C205.775 10.56 207 8.69 207 7.1C207 4.61 205.1 3 203 3Z" fill="#0D6EFD"/>
</svg>
