<svg width="28" height="11" viewBox="0 0 28 11" fill="none" xmlns="http://www.w3.org/2000/svg">
<path fill-rule="evenodd" clip-rule="evenodd" d="M3.60938 10.2445C6.11817 10.2445 7.6084 8.30255 7.6084 5.014C7.6084 3.77572 7.36914 2.73368 6.91113 1.92846C6.24804 0.67665 5.10644 0 3.66406 0C1.51758 0 0 1.42774 0 3.43063C0 5.31173 1.36719 6.67857 3.24707 6.67857C4.40234 6.67857 5.33887 6.14401 5.80371 5.217H5.82422C5.82422 5.217 5.85156 5.217 5.8584 5.217C5.87207 5.217 5.91992 5.217 5.91992 5.217C5.91992 7.44996 5.06543 8.78297 3.62305 8.78297C2.77539 8.78297 2.11914 8.32285 1.89356 7.58529H0.13672C0.43067 9.18896 1.80469 10.2445 3.60938 10.2445ZM3.6709 5.29143C2.53613 5.29143 1.72949 4.49298 1.72949 3.3765C1.72949 2.28708 2.57715 1.4548 3.67773 1.4548C4.77832 1.4548 5.62597 2.30061 5.62597 3.40356C5.62597 4.49298 4.79882 5.29143 3.67089 5.29143H3.6709ZM10.709 8.97243C11.3584 8.97243 11.8027 8.5123 11.8027 7.90331C11.8027 7.28756 11.3584 6.8342 10.709 6.8342C10.0664 6.8342 9.61525 7.28756 9.61525 7.90331C9.61525 8.51229 10.0664 8.97243 10.709 8.97243ZM10.709 3.89753C11.3584 3.89753 11.8027 3.44417 11.8027 2.83518C11.8027 2.21943 11.3584 1.76607 10.709 1.76607C10.0664 1.76607 9.61525 2.21943 9.61525 2.83518C9.61525 3.44417 10.0664 3.89753 10.709 3.89753ZM18.6221 10.0077H20.3106V8.18751H21.6436V6.71241H20.3106V0.243592H17.8223C16.0791 2.84194 14.6914 5.014 13.8028 6.63121V8.18752H18.6221L18.6221 10.0077ZM15.4366 6.65151C16.585 4.64861 17.6104 3.04495 18.5537 1.66457H18.6494V6.75301H15.4366V6.65151ZM25.6875 10.0077H27.4512V0.243592H25.6944L23.1172 2.02996V3.70806L25.5713 2.00289H25.6875L25.6875 10.0077Z" fill="#00334D"/>
</svg>
