<svg width="16" height="11" viewBox="0 0 16 11" fill="none" xmlns="http://www.w3.org/2000/svg">
<mask id="mask0_60_468" style="mask-type:alpha" maskUnits="userSpaceOnUse" x="0" y="0" width="16" height="11">
<path fill-rule="evenodd" clip-rule="evenodd" d="M7.66395 2.2542C9.87986 2.2543 12.0111 3.09709 13.6169 4.60839C13.7379 4.72507 13.9312 4.7236 14.0504 4.60509L15.2064 3.45027C15.2667 3.39016 15.3003 3.30875 15.2997 3.22404C15.2993 3.13933 15.2646 3.05831 15.2036 2.9989C10.9886 -0.999632 4.33875 -0.999632 0.123659 2.9989C0.0625591 3.05826 0.027959 3.13926 0.027349 3.22397C0.026859 3.30868 0.060369 3.39012 0.120639 3.45027L1.27695 4.60509C1.39606 4.72378 1.58945 4.72525 1.71036 4.60839C3.31644 3.09699 5.44785 2.25419 7.66394 2.2542H7.66395ZM7.66395 6.01134C8.88145 6.01126 10.0555 6.4592 10.958 7.26811C11.0801 7.38291 11.2723 7.38043 11.3914 7.26251L12.546 6.10768C12.6068 6.04711 12.6405 5.96494 12.6397 5.87954C12.6388 5.79416 12.6034 5.71268 12.5414 5.65334C9.79316 3.12291 5.53715 3.12291 2.78895 5.65334C2.72697 5.71268 2.69145 5.7942 2.69065 5.87961C2.68986 5.96502 2.72376 6.04719 2.78464 6.10768L3.93894 7.26251C4.05796 7.38043 4.25025 7.38291 4.37235 7.26811C5.27414 6.45973 6.44724 6.01184 7.66395 6.01134ZM9.88295 8.7674C9.94478 8.70741 9.97878 8.62486 9.97697 8.53923C9.97526 8.4536 9.93785 8.37248 9.87367 8.31504C8.59807 7.24712 6.72987 7.24712 5.45436 8.31504C5.39006 8.37244 5.35268 8.45353 5.35087 8.53915C5.34895 8.62479 5.38294 8.70737 5.44465 8.7674L7.44236 10.7626C7.50086 10.8212 7.58067 10.8542 7.66395 10.8542C7.74726 10.8542 7.82707 10.8212 7.88566 10.7626L9.88295 8.7674Z" fill="white"/>
</mask>
<g mask="url(#mask0_60_468)">
<path d="M-4.97266 -4.94925H20.2997V15.8035H-4.97266V-4.94925Z" fill="#00334D"/>
</g>
</svg>
